<?xml version="1.0" encoding="utf-8"?>
<!-- Generator: Adobe Illustrator 16.0.0, SVG Export Plug-In . SVG Version: 6.00 Build 0)  -->
<!DOCTYPE svg PUBLIC "-//W3C//DTD SVG 1.1//EN" "http://www.w3.org/Graphics/SVG/1.1/DTD/svg11.dtd">
<svg version="1.1" id="Layer_1" xmlns="http://www.w3.org/2000/svg" xmlns:xlink="http://www.w3.org/1999/xlink" x="0px" y="0px"
	 width="16.203px" height="15.828px" viewBox="0 0 16.203 15.828" enable-background="new 0 0 16.203 15.828" xml:space="preserve">
<g>
	<path fill="none" stroke="#B8BBBC" stroke-width="0.5" stroke-miterlimit="10" d="M15.904,7.93c0,2.87-10.014,7.335-10.393,7.404
		c2.476-1.679,6.844-9.193,4.387-12.601c1.201-0.001,3.119,0.408,3.998,1.094C15.117,4.777,15.904,6.262,15.904,7.93z"/>
	<path fill="none" stroke="#000000" stroke-width="0.5" stroke-miterlimit="10" d="M10.707,5.519c0,2.87-4.358,9.815-5.196,9.815
		S0.315,8.389,0.315,5.519c0-1.667,0.785-3.151,2.006-4.103c0.881-0.686,1.988-1.094,3.19-1.094c1.202-0.001,2.31,0.408,3.189,1.094
		C9.922,2.367,10.707,3.851,10.707,5.519z"/>
	<circle fill="#21A2C6" cx="5.511" cy="5.332" r="1.526"/>
</g>
</svg>
