<?xml version="1.0" encoding="utf-8"?>
<!-- Generator: Adobe Illustrator 16.0.0, SVG Export Plug-In . SVG Version: 6.00 Build 0)  -->
<!DOCTYPE svg PUBLIC "-//W3C//DTD SVG 1.1//EN" "http://www.w3.org/Graphics/SVG/1.1/DTD/svg11.dtd">
<svg version="1.1" id="Layer_1" xmlns="http://www.w3.org/2000/svg" xmlns:xlink="http://www.w3.org/1999/xlink" x="0px" y="0px"
	 width="18.044px" height="15.335px" viewBox="0 0 18.044 15.335" enable-background="new 0 0 18.044 15.335" xml:space="preserve">
<g>
	<g>
		<g>
			<g>
				<path d="M12.527,14.031c-0.27,0-0.449-0.008-0.449-0.008H6.373C2.859,14.023,0,11.18,0,7.686c0-3.514,2.9-6.372,6.464-6.372
					c3.565,0,6.464,2.85,6.464,6.354v2.311c0,1.136,0.662,1.639,1.246,2.083c0.371,0.282,0.721,0.55,0.838,0.942
					c0.053,0.177,0.023,0.344-0.082,0.485C14.662,13.851,13.854,14.031,12.527,14.031z M6.464,1.753
					c-3.322,0-6.025,2.661-6.025,5.933c0,3.251,2.663,5.899,5.934,5.899h5.717c0.012,0.001,0.182,0.008,0.438,0.008
					c1.312,0,1.924-0.196,2.051-0.365c0.018-0.025,0.027-0.051,0.012-0.097c-0.074-0.257-0.355-0.471-0.684-0.72
					c-0.598-0.455-1.416-1.078-1.416-2.432V7.669C12.49,4.406,9.787,1.753,6.464,1.753z"/>
			</g>
		</g>
	</g>
	<g>
		<g>
			<path fill="#21A2C6" d="M9.117,6.759H3.355c-0.145,0-0.262-0.116-0.262-0.26c0-0.146,0.117-0.264,0.262-0.264h5.761
				c0.145,0,0.262,0.117,0.262,0.264C9.378,6.643,9.261,6.759,9.117,6.759z"/>
		</g>
		<g>
			<path fill="#21A2C6" d="M9.117,8.331H3.355c-0.145,0-0.262-0.117-0.262-0.262c0-0.144,0.117-0.262,0.262-0.262h5.761
				c0.145,0,0.262,0.118,0.262,0.262C9.378,8.214,9.261,8.331,9.117,8.331z"/>
		</g>
		<g>
			<path fill="#21A2C6" d="M7.807,9.903H3.355c-0.145,0-0.262-0.117-0.262-0.264c0-0.144,0.117-0.26,0.262-0.26h4.452
				c0.145,0,0.263,0.116,0.263,0.26C8.07,9.786,7.952,9.903,7.807,9.903z"/>
		</g>
	</g>
</g>
</svg>
