<?xml version="1.0" encoding="utf-8"?>
<!-- Generator: Adobe Illustrator 16.0.0, SVG Export Plug-In . SVG Version: 6.00 Build 0)  -->
<!DOCTYPE svg PUBLIC "-//W3C//DTD SVG 1.1//EN" "http://www.w3.org/Graphics/SVG/1.1/DTD/svg11.dtd">
<svg version="1.1" id="Layer_1" xmlns="http://www.w3.org/2000/svg" xmlns:xlink="http://www.w3.org/1999/xlink" x="0px" y="0px"
	 width="32px" height="32px" viewBox="0 0 32 32" enable-background="new 0 0 32 32" xml:space="preserve">
<g>
	<path fill="#E04037" d="M13.219,30.371l-0.352,0.355c0.823,0.816,1.905,1.226,2.982,1.225c1.078,0.001,2.16-0.408,2.985-1.225
		L30.717,18.96h0.001c0.821-0.815,1.234-1.891,1.233-2.961c0.001-1.07-0.412-2.145-1.234-2.957L18.835,1.271v0
		c-0.824-0.815-1.906-1.223-2.982-1.222l0,0c-1.079,0-2.162,0.408-2.988,1.221l-0.001,0.001l-0.001,0.001
		c-0.817,0.816-1.229,1.891-1.229,2.96c0,1.07,0.411,2.144,1.229,2.96l0.012,0.012l5.065,4.412H4.412
		c-2.409,0-4.363,1.952-4.363,4.359l0,0c0,2.41,1.954,4.362,4.363,4.362h13.575l-5.108,4.459l-0.012,0.012
		c-0.818,0.815-1.229,1.89-1.229,2.959c0,1.069,0.411,2.143,1.229,2.958h0l0,0.001L13.219,30.371l0.353-0.354
		c-0.625-0.623-0.935-1.434-0.935-2.249c0-0.815,0.311-1.627,0.935-2.252l-0.353-0.354l0.329,0.377l7.104-6.201H4.412
		c-1.857-0.003-3.36-1.505-3.363-3.362c0.003-1.854,1.506-3.356,3.363-3.359h16.2l-7.068-6.154l-0.328,0.377l0.354-0.354
		c-0.625-0.624-0.935-1.436-0.935-2.252c0-0.816,0.31-1.628,0.935-2.252l-0.003,0.002c0.633-0.623,1.458-0.934,2.287-0.934
		c0.827,0,1.648,0.31,2.279,0.933v0l11.882,11.771v0c0.626,0.62,0.938,1.43,0.938,2.246c0,0.816-0.312,1.629-0.938,2.25h0.001
		L18.132,30.016l0,0c-0.632,0.624-1.455,0.936-2.282,0.936c-0.827,0-1.648-0.312-2.278-0.936l0.001,0.001L13.219,30.371z"/>
</g>
</svg>
