<?xml version="1.0" encoding="utf-8"?>
<!-- Generator: Adobe Illustrator 16.0.0, SVG Export Plug-In . SVG Version: 6.00 Build 0)  -->
<!DOCTYPE svg PUBLIC "-//W3C//DTD SVG 1.1//EN" "http://www.w3.org/Graphics/SVG/1.1/DTD/svg11.dtd">
<svg version="1.1" id="Layer_1" xmlns="http://www.w3.org/2000/svg" xmlns:xlink="http://www.w3.org/1999/xlink" x="0px" y="0px"
	 width="32px" height="32px" viewBox="0 0 32 32" enable-background="new 0 0 32 32" xml:space="preserve">
<g>
	<path fill="#E04037" d="M18.78,30.371l0.353,0.355c-0.823,0.816-1.905,1.226-2.982,1.225c-1.078,0.001-2.16-0.408-2.985-1.225
		L1.283,18.96H1.282c-0.821-0.815-1.234-1.891-1.233-2.961c-0.001-1.07,0.412-2.145,1.234-2.957L13.165,1.271V1.271
		c0.824-0.815,1.905-1.223,2.982-1.222l0,0c1.078-0.001,2.161,0.408,2.987,1.221l0.002,0.002l0.001,0.001
		c0.817,0.816,1.229,1.891,1.229,2.96c0.001,1.07-0.411,2.145-1.229,2.961l-0.012,0.012l-5.065,4.411h13.527
		c2.409,0.001,4.363,1.952,4.363,4.359l0,0c0,2.41-1.953,4.362-4.363,4.362H14.014l5.108,4.459l0.012,0.012
		c0.818,0.815,1.229,1.89,1.229,2.959c0.001,1.069-0.41,2.143-1.229,2.958h-0.001v0.001L18.78,30.371l-0.353-0.354
		c0.624-0.623,0.935-1.434,0.935-2.249s-0.311-1.627-0.935-2.252l0.353-0.354l-0.328,0.377l-7.104-6.201h16.24
		c1.857-0.003,3.36-1.505,3.363-3.362c-0.003-1.854-1.506-3.355-3.363-3.359H11.389l7.067-6.154l0.328,0.377l-0.354-0.354
		c0.625-0.624,0.935-1.437,0.936-2.253c-0.001-0.816-0.311-1.628-0.936-2.252l0.003,0.002c-0.633-0.622-1.458-0.934-2.286-0.934
		c-0.827,0-1.648,0.31-2.279,0.933l0,0L1.986,13.753l0,0c-0.626,0.62-0.938,1.431-0.938,2.246c0,0.816,0.312,1.629,0.938,2.25H1.986
		l11.882,11.767l0,0c0.632,0.624,1.455,0.936,2.282,0.936c0.826,0,1.648-0.312,2.278-0.936l-0.001,0.001L18.78,30.371z"/>
</g>
</svg>
