<?xml version="1.0" encoding="utf-8"?>
<!-- Generator: Adobe Illustrator 16.0.0, SVG Export Plug-In . SVG Version: 6.00 Build 0)  -->
<!DOCTYPE svg PUBLIC "-//W3C//DTD SVG 1.1//EN" "http://www.w3.org/Graphics/SVG/1.1/DTD/svg11.dtd">
<svg version="1.1" id="Layer_1" xmlns="http://www.w3.org/2000/svg" xmlns:xlink="http://www.w3.org/1999/xlink" x="0px" y="0px"
	 width="71px" height="30px" viewBox="0 0 71 30" enable-background="new 0 0 71 30" xml:space="preserve">
<g>
	<path fill="#E04037" d="M53.873,11.936h-2.76l-2.451-3.061h-17.91l-1.224-1.531h-1.684V5.813l-6.123-3.062l-4.593-1.531
		l-1.226,6.124h-1.838l-3.671,4.592H7.943l-4.899,6.125H0.288L3.35,28.779h55.113l12.25-10.718H58.77L53.873,11.936z M18.292,3.221
		l2.842,0.948l5.181,2.591v0.584h-8.849L18.292,3.221z M8.68,13.469h6.92v-1.533h-3.247l2.449-3.061h13.994l1.224,1.531h17.915
		l1.225,1.53h-16.72v1.533h20.701L54.359,15H38.564v1.531h17.021l1.223,1.531H5.007L8.68,13.469z M66.641,19.593l-8.752,7.654H4.506
		l-0.875-3.063h5.84v-1.529H3.193l-0.875-3.062h57.675H66.641z"/>
	<rect x="44.688" y="22.654" fill="#E04037" width="12.248" height="1.529"/>
	<rect x="41.621" y="22.654" fill="#E04037" width="1.535" height="1.529"/>
	<rect x="11.007" y="22.654" fill="#E04037" width="1.531" height="1.529"/>
	<rect x="27.845" y="11.936" fill="#E04037" width="1.533" height="1.533"/>
	<rect x="23.253" y="11.936" fill="#E04037" width="1.531" height="1.533"/>
	<rect x="18.658" y="11.936" fill="#E04037" width="1.533" height="1.533"/>
	<rect x="33.973" y="15" fill="#E04037" width="1.527" height="1.531"/>
	<rect x="29.377" y="15" fill="#E04037" width="1.529" height="1.531"/>
	<rect x="24.785" y="15" fill="#E04037" width="1.531" height="1.531"/>
	<rect x="20.191" y="15" fill="#E04037" width="1.531" height="1.531"/>
	<rect x="15.6" y="15" fill="#E04037" width="1.529" height="1.531"/>
	<rect x="11.007" y="15" fill="#E04037" width="1.531" height="1.531"/>
</g>
</svg>
