<?xml version="1.0" encoding="utf-8"?>
<!-- Generator: Adobe Illustrator 16.0.0, SVG Export Plug-In . SVG Version: 6.00 Build 0)  -->
<!DOCTYPE svg PUBLIC "-//W3C//DTD SVG 1.1//EN" "http://www.w3.org/Graphics/SVG/1.1/DTD/svg11.dtd">
<svg version="1.1" id="Layer_1" xmlns="http://www.w3.org/2000/svg" xmlns:xlink="http://www.w3.org/1999/xlink" x="0px" y="0px"
	 width="75.28px" height="36.23px" viewBox="0 0 75.28 36.23" enable-background="new 0 0 75.28 36.23" xml:space="preserve">
<g>
	<path opacity="0.5" fill="#E04037" d="M17.388,29.43c-6.106,0-11.094-5.064-11.096-11.181C6.289,12.133,11.275,6.894,17.381,6.892
		c3.899-0.002,7.313,1.386,9.301,4.809l5.615-0.003c-2.395-5.988-8.168-9.849-14.918-9.846C8.507,1.853,1.292,9.177,1.295,18.059
		c0.002,8.875,7.225,16.32,16.097,16.32c6.75-0.004,12.517-3.012,14.912-9.861l-5.624,0.004
		C24.703,27.944,21.288,29.428,17.388,29.43z"/>
	<path fill="#E04037" d="M58.594,2.61c-0.982-0.971-2.557-0.97-3.539,0.002c-0.963,0.983-0.965,2.301,0.006,3.272l9.5,9.218
		l-39.959,0.015c-1.03-3.414-3.868-4.871-7.223-4.869c-4.218,0.002-7.637,3.557-7.637,7.784c0,4.22,3.427,7.942,7.646,7.94
		c3.342-0.002,6.189-1.444,7.217-4.857l39.639-0.019l-9.176,8.949c-0.965,0.971-0.967,2.45,0.002,3.429
		c0.498,0.486,1.125,0.678,1.766,0.676c0.645,0,1.287-0.27,1.771-0.754l15.377-15.405L58.594,2.61z"/>
</g>
</svg>
