<?xml version="1.0" encoding="utf-8"?>
<!-- Generator: Adobe Illustrator 16.0.0, SVG Export Plug-In . SVG Version: 6.00 Build 0)  -->
<!DOCTYPE svg PUBLIC "-//W3C//DTD SVG 1.1//EN" "http://www.w3.org/Graphics/SVG/1.1/DTD/svg11.dtd">
<svg version="1.1" id="Layer_1" xmlns="http://www.w3.org/2000/svg" xmlns:xlink="http://www.w3.org/1999/xlink" x="0px" y="0px"
	 width="29px" height="37px" viewBox="0 0 29 37" enable-background="new 0 0 29 37" xml:space="preserve">
<path fill="#58595B" d="M13.829,33.867v0.182c0,0.348,0.283,0.631,0.631,0.629c0.174,0,0.331-0.07,0.445-0.185
	c0.114-0.114,0.185-0.271,0.185-0.446v-0.184c0-0.348-0.283-0.629-0.631-0.629C14.11,33.235,13.828,33.518,13.829,33.867z
	 M13.829,28.305V32c0,0.348,0.282,0.631,0.63,0.631c0.174,0,0.331-0.071,0.446-0.186C15.02,32.331,15.09,32.174,15.09,32v-3.695
	c0-0.348-0.282-0.631-0.63-0.631C14.111,27.674,13.829,27.957,13.829,28.305z M14.4,25.584c-3.128,0-5.673,2.545-5.673,5.674
	c0,3.127,2.545,5.672,5.673,5.672c3.127,0,5.672-2.545,5.672-5.672C20.072,28.129,17.527,25.584,14.4,25.584z M18.812,31.257
	c0,2.433-1.979,4.412-4.412,4.412c-2.433,0-4.412-1.979-4.412-4.412s1.979-4.411,4.412-4.411
	C16.832,26.846,18.812,28.824,18.812,31.257z M28.783,28.205l-0.479-2.867c-0.561-2.795-5.128-4.283-8.211-4.283
	c-0.348,0-0.631,0.283-0.631,0.631s0.283,0.63,0.631,0.63c2.923,0,6.605,1.429,6.972,3.249l0.442,2.653
	c-0.264,0.511-1.264,2.153-3.57,2.883c-0.332,0.105-0.516,0.459-0.411,0.791c0.085,0.269,0.334,0.44,0.601,0.44
	c0.062,0,0.128-0.009,0.19-0.029c3.272-1.035,4.381-3.643,4.427-3.754C28.789,28.441,28.803,28.321,28.783,28.205z M8.706,22.315
	c0.348,0,0.63-0.282,0.63-0.63s-0.282-0.631-0.63-0.631c-3.083,0-7.651,1.488-8.214,4.303l-0.475,2.848
	c-0.019,0.116-0.006,0.236,0.039,0.344c0.045,0.111,1.154,2.719,4.427,3.754c0.063,0.021,0.127,0.029,0.189,0.029
	c0.268,0,0.517-0.172,0.602-0.44c0.105-0.332-0.079-0.686-0.411-0.791c-2.309-0.729-3.309-2.375-3.569-2.882l0.438-2.635
	C2.1,23.744,5.783,22.315,8.706,22.315z M6.822,12.737c0.378,0.98,1.49,3.781,2.309,5.007l0.073,0.113
	c0.626,0.951,1.674,2.541,5.196,2.541c3.52,0,4.569-1.589,5.195-2.54l0.075-0.113c0.816-1.227,1.931-4.028,2.309-5.007
	c0.646-0.197,1.118-0.8,1.118-1.511V9.328c0-0.647-0.39-1.205-0.948-1.449V6.955c0-4.321-2.824-6.799-7.749-6.799
	c-6.994,0-7.748,4.755-7.748,6.8V7.89c-0.549,0.254-0.95,0.818-0.95,1.439v1.897C5.702,11.937,6.174,12.54,6.822,12.737z
	 M6.962,9.328c0-0.165,0.18-0.319,0.319-0.319c0.348,0,0.631-0.282,0.631-0.63V6.955c0-3.571,2.303-5.538,6.487-5.538
	c5.362,0,6.487,3.012,6.487,5.538v1.423c0,0.348,0.283,0.63,0.631,0.63c0.176,0,0.318,0.144,0.318,0.319v1.898
	c0,0.176-0.143,0.319-0.318,0.319c-0.263,0-0.498,0.163-0.59,0.409c-0.014,0.037-1.408,3.743-2.307,5.091l-0.078,0.118
	c-0.55,0.833-1.303,1.973-4.143,1.973c-2.843,0-3.595-1.141-4.143-1.974l-0.078-0.118c-0.898-1.347-2.293-5.054-2.307-5.091
	c-0.092-0.246-0.327-0.409-0.59-0.409c-0.176,0-0.319-0.143-0.319-0.319V9.328z"/>
</svg>
