<?xml version="1.0" encoding="utf-8"?>
<!-- Generator: Adobe Illustrator 16.0.0, SVG Export Plug-In . SVG Version: 6.00 Build 0)  -->
<!DOCTYPE svg PUBLIC "-//W3C//DTD SVG 1.1//EN" "http://www.w3.org/Graphics/SVG/1.1/DTD/svg11.dtd">
<svg version="1.1" xmlns="http://www.w3.org/2000/svg" xmlns:xlink="http://www.w3.org/1999/xlink" x="0px" y="0px" width="55px"
	 height="24.65px" viewBox="0 0 55 24.65" enable-background="new 0 0 55 24.65" xml:space="preserve">
<g id="Layer_1" display="none">
	<path display="inline" fill="#E04037" d="M40.798,3.373l7.547,7.161H2.188c-0.963-0.022-1.842,0.858-1.842,1.807
		c0,0.963,0.878,1.846,1.842,1.825h46.178l-7.567,7.177c-0.854,0.816-0.644,2.024-0.064,2.58c0.922,0.883,1.888,0.67,2.606,0.023
		l10.583-10.041c1.052-0.987,0.92-2.234-0.087-3.201L43.297,0.728C41.42-1.054,38.96,1.632,40.798,3.373L40.798,3.373z"/>
</g>
<g id="Layer_2">
	<g transform="translate(0,-952.36218)">
		<path fill="#E04037" d="M27,952.308c-6.776,0-12.286,5.511-12.286,12.287s5.51,12.287,12.286,12.287s12.287-5.511,12.287-12.287
			S33.776,952.308,27,952.308z M27,953.845c5.945,0,10.749,4.803,10.749,10.751c0,5.946-4.804,10.749-10.749,10.749
			c-5.946,0-10.75-4.803-10.75-10.749C16.25,958.647,21.054,953.845,27,953.845z M27,956.147c-0.424,0-0.769,0.345-0.769,0.769v7.68
			c0,0.424,0.345,0.767,0.769,0.767h6.91c0.424,0,0.767-0.343,0.767-0.767s-0.343-0.767-0.767-0.767h-6.143v-6.913
			C27.768,956.492,27.424,956.147,27,956.147z"/>
	</g>
</g>
</svg>
