<?xml version="1.0" encoding="utf-8"?>
<!-- Generator: Adobe Illustrator 16.0.0, SVG Export Plug-In . SVG Version: 6.00 Build 0)  -->
<!DOCTYPE svg PUBLIC "-//W3C//DTD SVG 1.1//EN" "http://www.w3.org/Graphics/SVG/1.1/DTD/svg11.dtd">
<svg version="1.1" xmlns="http://www.w3.org/2000/svg" xmlns:xlink="http://www.w3.org/1999/xlink" x="0px" y="0px"
	 width="34.261px" height="37px" viewBox="-1.63 0 34.261 37" enable-background="new -1.63 0 34.261 37" xml:space="preserve">
<g id="Layer_1" display="none">
	<path display="inline" fill="#58595B" d="M13.829,33.867v0.182c0,0.348,0.283,0.631,0.631,0.629c0.174,0,0.331-0.07,0.445-0.185
		c0.115-0.114,0.185-0.271,0.185-0.446v-0.184c0-0.348-0.283-0.629-0.631-0.629C14.11,33.234,13.828,33.518,13.829,33.867z
		 M13.829,28.305V32c0,0.348,0.282,0.631,0.63,0.631c0.174,0,0.331-0.07,0.446-0.186C15.02,32.331,15.09,32.174,15.09,32v-3.695
		c0-0.348-0.282-0.631-0.63-0.631C14.111,27.674,13.829,27.957,13.829,28.305z M14.4,25.584c-3.128,0-5.673,2.545-5.673,5.674
		c0,3.127,2.545,5.672,5.673,5.672c3.127,0,5.672-2.545,5.672-5.672C20.072,28.129,17.527,25.584,14.4,25.584z M18.812,31.257
		c0,2.433-1.979,4.412-4.413,4.412s-4.412-1.979-4.412-4.412s1.979-4.411,4.412-4.411C16.832,26.846,18.812,28.824,18.812,31.257z
		 M28.783,28.205l-0.479-2.867c-0.562-2.795-5.129-4.283-8.212-4.283c-0.348,0-0.631,0.283-0.631,0.631
		c0,0.349,0.283,0.631,0.631,0.631c2.923,0,6.605,1.429,6.972,3.248l0.442,2.653c-0.264,0.511-1.264,2.153-3.569,2.884
		c-0.332,0.104-0.517,0.459-0.412,0.791c0.086,0.269,0.334,0.439,0.602,0.439c0.062,0,0.128-0.009,0.189-0.029
		c3.272-1.035,4.382-3.643,4.428-3.754C28.789,28.441,28.803,28.32,28.783,28.205z M8.706,22.314c0.348,0,0.63-0.281,0.63-0.629
		c0-0.349-0.282-0.631-0.63-0.631c-3.083,0-7.651,1.487-8.214,4.303l-0.475,2.848c-0.019,0.115-0.006,0.236,0.039,0.344
		c0.045,0.111,1.154,2.719,4.427,3.754c0.063,0.021,0.127,0.029,0.189,0.029c0.268,0,0.517-0.172,0.602-0.439
		c0.105-0.332-0.079-0.687-0.411-0.791c-2.309-0.729-3.309-2.375-3.569-2.883l0.438-2.635C2.1,23.744,5.783,22.314,8.706,22.314z
		 M6.822,12.737c0.378,0.98,1.49,3.781,2.309,5.007l0.073,0.113c0.626,0.951,1.674,2.542,5.196,2.542
		c3.52,0,4.569-1.589,5.196-2.541l0.074-0.113c0.816-1.227,1.932-4.028,2.309-5.007c0.646-0.197,1.119-0.8,1.119-1.511V9.328
		c0-0.647-0.391-1.205-0.949-1.449V6.955c0-4.321-2.823-6.799-7.749-6.799c-6.994,0-7.748,4.755-7.748,6.8V7.89
		c-0.549,0.254-0.95,0.818-0.95,1.439v1.897C5.702,11.937,6.174,12.54,6.822,12.737z M6.962,9.328c0-0.165,0.18-0.319,0.319-0.319
		c0.348,0,0.631-0.282,0.631-0.63V6.955c0-3.571,2.303-5.538,6.487-5.538c5.362,0,6.487,3.012,6.487,5.538v1.423
		c0,0.348,0.283,0.63,0.632,0.63c0.176,0,0.317,0.144,0.317,0.319v1.898c0,0.176-0.144,0.319-0.317,0.319
		c-0.264,0-0.498,0.163-0.591,0.409c-0.014,0.037-1.407,3.743-2.307,5.091l-0.078,0.118c-0.55,0.833-1.303,1.973-4.143,1.973
		c-2.843,0-3.595-1.141-4.143-1.974l-0.078-0.118c-0.898-1.347-2.293-5.054-2.307-5.091c-0.092-0.246-0.327-0.409-0.59-0.409
		c-0.176,0-0.319-0.143-0.319-0.319V9.328z"/>
</g>
<g id="Layer_2">
	<g>
		<g>
			<g>
				<path fill="#58595B" d="M8.029,17.43c-1.19,0-2.158-0.968-2.158-2.158c0-1.19,0.968-2.158,2.158-2.158
					c1.19,0,2.159,0.968,2.159,2.158C10.188,16.462,9.219,17.43,8.029,17.43z M8.029,13.854c-0.782,0-1.417,0.636-1.417,1.418
					c0,0.782,0.635,1.419,1.417,1.419s1.418-0.637,1.418-1.419C9.447,14.49,8.811,13.854,8.029,13.854z"/>
				<path fill="#58595B" d="M14.196,17.43c-1.19,0-2.159-0.968-2.159-2.158c0-1.19,0.968-2.158,2.159-2.158
					c1.189,0,2.158,0.968,2.158,2.158C16.354,16.462,15.385,17.43,14.196,17.43z M14.196,13.854c-0.782,0-1.418,0.636-1.418,1.418
					c0,0.782,0.636,1.419,1.418,1.419s1.417-0.637,1.417-1.419C15.613,14.49,14.978,13.854,14.196,13.854z"/>
				<path fill="#58595B" d="M20.363,17.43c-1.191,0-2.16-0.968-2.16-2.158c0-1.19,0.969-2.158,2.16-2.158
					c1.189,0,2.158,0.968,2.158,2.158C22.521,16.462,21.553,17.43,20.363,17.43z M20.363,13.854c-0.783,0-1.418,0.636-1.418,1.418
					c0,0.782,0.635,1.419,1.418,1.419c0.781,0,1.418-0.637,1.418-1.419C21.781,14.49,21.145,13.854,20.363,13.854z"/>
			</g>
			<g>
				<path fill="#58595B" d="M5.455,32.418c-0.049,0-0.096-0.01-0.142-0.029c-0.138-0.057-0.229-0.191-0.229-0.342v-5.734H4.906
					c-3.605,0-6.537-2.934-6.537-6.537V9.538c0-3.604,2.932-6.537,6.537-6.537h18.578c3.604,0,6.535,2.933,6.535,6.537v6.406
					c0,0.205-0.164,0.37-0.369,0.37c-0.203,0-0.369-0.165-0.369-0.37V9.538c0-3.196-2.6-5.797-5.797-5.797H4.907
					c-3.196,0-5.796,2.601-5.796,5.797v10.237c0,3.197,2.6,5.797,5.796,5.797h0.547c0.205,0,0.37,0.166,0.37,0.369v5.213
					l5.473-5.473c0.07-0.07,0.165-0.109,0.261-0.109h1.417c0.204,0,0.371,0.166,0.371,0.369c0,0.205-0.167,0.371-0.371,0.371h-1.262
					l-5.997,5.996C5.646,32.379,5.551,32.418,5.455,32.418z"/>
				<path fill="#58595B" d="M28.072,33.998c-0.096,0-0.191-0.037-0.262-0.107l-3.701-3.701h-7.285c-2.326,0-4.219-1.893-4.219-4.219
					c0-0.203,0.166-0.398,0.37-0.398h10.51c3.197,0,5.797-2.602,5.797-5.797v-3.832c0-0.119,0.057-0.231,0.154-0.301
					s0.221-0.087,0.336-0.049c1.709,0.582,2.859,2.185,2.859,3.99v6.387c0,2.316-1.877,4.203-4.189,4.219v3.439
					c0,0.148-0.09,0.285-0.229,0.342C28.168,33.99,28.119,33.998,28.072,33.998z M13.365,26.312c0.184,1.77,1.664,3.137,3.459,3.137
					h7.438c0.1,0,0.195,0.039,0.264,0.107l3.176,3.178v-2.916c0-0.203,0.166-0.369,0.371-0.369h0.342
					c1.916,0,3.477-1.561,3.477-3.479v-6.385c0-1.31-0.732-2.491-1.871-3.083v3.272c0,3.604-2.932,6.537-6.535,6.537H13.365
					L13.365,26.312z"/>
				<path fill="#58595B" d="M23.484,26.312h-10.51c-0.204,0-0.37-0.166-0.37-0.371c0-0.203,0.166-0.369,0.37-0.369h10.51
					c3.197,0,5.797-2.6,5.797-5.797v-3.831c0-0.205,0.166-0.37,0.369-0.37c0.205,0,0.369,0.165,0.369,0.37v3.831
					C30.021,23.379,27.088,26.312,23.484,26.312z"/>
			</g>
		</g>
	</g>
</g>
</svg>
