<?xml version="1.0" encoding="utf-8"?>
<!-- Generator: Adobe Illustrator 16.0.0, SVG Export Plug-In . SVG Version: 6.00 Build 0)  -->
<!DOCTYPE svg PUBLIC "-//W3C//DTD SVG 1.1//EN" "http://www.w3.org/Graphics/SVG/1.1/DTD/svg11.dtd">
<svg version="1.1" id="Layer_1" xmlns="http://www.w3.org/2000/svg" xmlns:xlink="http://www.w3.org/1999/xlink" x="0px" y="0px"
	 width="324px" height="69.048px" viewBox="0 0 324 69.048" enable-background="new 0 0 324 69.048" xml:space="preserve">
<g>
	<path fill="#919396" d="M15.886,69.048c-13.404,0-18.149-8.896-14.902-24.038C4.1,30.484,13.478,20.976,26.687,20.976
		c10.859,0,16.738,5.898,14.995,15.846h-8.708c0.893-5.986-1.329-9.771-7.981-9.771c-7.338,0-12.57,6.603-14.988,17.874
		C7.552,56.808,10.027,63.06,16.973,63.06c6.262,0,10.751-4.047,12.676-10.742h8.708C34.995,62.974,27.529,69.048,15.886,69.048z"/>
	<path fill="#919396" d="M62.65,69.048c-14.382,0-19.269-8.603-16.173-21.547c3.061-12.784,12.103-21.546,26.485-21.546
		c14.383,0,19.272,8.604,16.172,21.546C86.04,60.446,77.034,69.048,62.65,69.048z M55.479,47.501
		c-2.248,9.391-0.253,16.18,8.457,16.18c8.51,0,13.858-6.391,16.199-16.18c2.342-9.785,0.057-16.18-8.456-16.18
		C62.971,31.322,57.726,38.113,55.479,47.501z"/>
	<path fill="#919396" d="M110.669,68.509c-14.325-1.266-18.436-10.266-14.212-22.886c4.174-12.466,13.953-20.395,28.28-19.13
		c14.328,1.267,18.438,10.266,14.212,22.886C134.725,62,124.997,69.778,110.669,68.509z M105.421,46.416
		c-3.065,9.157-1.674,16.096,7,16.861c8.479,0.75,14.367-5.148,17.561-14.689c3.196-9.544,1.48-16.112-6.998-16.861
		C114.312,30.959,108.487,37.259,105.421,46.416z"/>
	<polygon fill="#919396" points="144.312,67.816 157.874,4.596 166.482,4.596 152.922,67.816 	"/>
	<path fill="#A6A7AA" d="M192.031,24.145c-8.902,0-15.99,7.042-18.955,20.865c-3.116,14.529,1.257,21.045,9.674,21.045
		c7.435,0,13.155-4.315,15.816-11.713h4.207c-3.508,9.511-10.59,14.706-20.375,14.706c-12.425,0-17.13-8.628-13.823-24.038
		c3.077-14.35,12.066-23.858,24.589-23.858c9.393,0,14.713,4.842,13.9,13.646h-4.303C203.41,27.667,199.762,24.145,192.031,24.145z"
		/>
	<path fill="#A6A7AA" d="M238.818,62.357l0.227-1.058h-0.098c-4.713,5.546-11.347,7.749-17.22,7.749
		c-8.61,0-12.835-4.932-11.098-13.032c2.776-12.942,20.078-15.141,32.656-15.848l1.282-5.986c1.587-7.396-2.544-10.037-9.098-10.037
		c-6.754,0-11.76,2.817-13.958,9.42h-4.107c2.889-8.45,9.412-12.414,18.805-12.414c10.469,0,14.085,4.579,12.254,13.118
		l-5.779,26.943c-0.531,2.464-0.77,4.488,2.265,4.488h0.684l-0.566,2.64h-0.977C238.122,68.341,238.382,64.381,238.818,62.357z
		 M214.991,55.752c-1.417,6.604,2.293,10.303,8.456,10.303c10.664,0,15.908-7.573,16.816-11.799l2.397-11.183
		C233.8,43.78,217.409,44.481,214.991,55.752z"/>
	<path fill="#A6A7AA" d="M266.488,40.083l-5.949,27.733h-4.108l7.574-35.305l0.394-1.851c0.512-2.378,1.09-5.99,1.506-7.925h4.207
		l-1.452,7.22h0.1c3.5-5.371,10.402-8.803,15.684-8.803h1.565c0.49,0,1.078,0,1.546,0.086L286.8,24.76
		c-0.766-0.089-1.529-0.175-2.312-0.175C275.878,24.584,268.53,30.572,266.488,40.083z"/>
	<path fill="#A6A7AA" d="M286.117,55.752h4.014c-0.554,6.692,2.252,10.477,10.764,10.477c6.848,0,14.103-3.255,15.539-9.947
		c1.057-4.931-2.364-7.219-5.978-8.628c-1.354-0.529-2.804-1.059-4.354-1.586l-7.478-2.554c-5.373-1.849-7.591-5.193-6.571-9.949
		c1.925-8.981,10.1-12.414,18.902-12.414c9.493,0,13.829,3.963,12.929,11.796h-4.01c0.654-6.251-3.339-9.067-9.895-9.067
		c-6.75,0-12.462,2.905-13.745,8.891c-1.039,4.842,2.478,6.693,8.579,8.803l9.477,3.259c5.473,1.851,7.382,5.723,6.381,10.389
		c-1.812,8.454-9.228,13.825-20.282,13.825C289.725,69.048,284.935,64.909,286.117,55.752z"/>
	<path fill="#6E6F72" d="M50.375,30.957c3.649-0.238,5.217-11.998,22.953-11.476c17.738,0.521,22.432,10.955,22.432,12.868
		c0,1.913,4.521-12.556,23.128-12.886c18.606-0.33,21.735,12.712,21.91,13.059c0.173,0.348-1.384-31.458-53.036-32.515
		c-10.608-0.219-23.824,4.326-29.04,4.346c-0.523,0-2.608,1.5-7.042,0.062c-2.694-0.873,3.129,3.977,3.259,7.37
		c0.132,3.392-6.441,10.112-5.998,16.822C49.057,30.371,50.024,30.979,50.375,30.957z"/>
</g>
</svg>
