<?xml version="1.0" encoding="utf-8"?>
<!-- Generator: Adobe Illustrator 16.0.0, SVG Export Plug-In . SVG Version: 6.00 Build 0)  -->
<!DOCTYPE svg PUBLIC "-//W3C//DTD SVG 1.1//EN" "http://www.w3.org/Graphics/SVG/1.1/DTD/svg11.dtd">
<svg version="1.1" id="Layer_1" xmlns="http://www.w3.org/2000/svg" xmlns:xlink="http://www.w3.org/1999/xlink" x="0px" y="0px"
	 width="211.417px" height="58.625px" viewBox="0 -42.375 211.417 58.625" enable-background="new 0 -42.375 211.417 58.625"
	 xml:space="preserve">
<g>
	<g>
		<g>
			<g>
				<g>
					<path fill="#E04037" d="M210.822,2.297c0.311,0.033,0.211-0.182,0.26-0.217C210.558,2.102,210.832,2.352,210.822,2.297z"/>
					<polygon fill="#E04037" points="205.639,2.533 205.734,2.452 204.962,2.625 					"/>
					<path fill="#E04037" d="M200.819,2.305c0.437,0.377,1.749,0.023,2.603,0.19l0.137,0.087l0.402-0.269
						C202.914,2.311,201.548,2.438,200.819,2.305z"/>
					<path fill="#E04037" d="M198.287,1.415c0.152,0.146-0.562,0.094,0.598,0.071c-0.057-0.018-0.073-0.028-0.105-0.041
						C198.673,1.443,198.53,1.436,198.287,1.415z"/>
					<path fill="#E04037" d="M198.778,1.446C199.287,1.46,198.451,1.314,198.778,1.446L198.778,1.446z"/>
					<path fill="#E04037" d="M196.429,1.417l0.675-0.093c-0.138-0.088-0.731-0.134-0.507-0.184
						C195.906,1.176,196.044,1.264,196.429,1.417z"/>
					<path fill="#E04037" d="M195.783,1.647l0.348-0.036C196.071,1.574,195.98,1.558,195.783,1.647z"/>
					<path fill="#E04037" d="M196.871,1.535l-0.74,0.077c0.095,0.062,0.1,0.178,0.34-0.024
						C196.405,1.689,196.555,1.595,196.871,1.535z"/>
					<path fill="#E04037" d="M197.285,1.608c0.37,0.095,0.854,0.166,0.178,0.258C198.742,1.877,198.567,1.618,197.285,1.608z"/>
					<path fill="#E04037" d="M200.555,2.663l0.495,0.127l0.439-0.1C201.271,2.74,200.529,2.549,200.555,2.663z"/>
					<path fill="#E04037" d="M192.269,1.039c-0.045,0.074,0.217,0.213,0.262,0.312l0.498-0.064
						C192.776,1.223,192.298,1.153,192.269,1.039z"/>
					<path fill="#E04037" d="M192.53,1.351l-0.743,0.096C192.445,1.493,192.569,1.437,192.53,1.351z"/>
					<polygon fill="#E04037" points="195.644,2.038 196.871,1.82 195.41,2.031 					"/>
					<polygon fill="#E04037" points="189.444,0.898 189.871,0.742 189.113,0.973 					"/>
					<path fill="#E04037" d="M187.57,0.842c0.316-0.131-0.416-0.266-0.084-0.34c-0.511,0.002-0.949,0.107-1.345,0.201
						C186.559,0.66,187.001,0.697,187.57,0.842z"/>
					<path fill="#E04037" d="M185.479,0.836c0.208-0.025,0.426-0.078,0.663-0.133C185.919,0.727,185.701,0.765,185.479,0.836z"/>
					<path fill="#E04037" d="M190.527,1.351c-0.055-0.048-0.16-0.173-0.572-0.244l0.282,0.227
						C190.326,1.339,190.425,1.345,190.527,1.351z"/>
					<path fill="#E04037" d="M190.248,1.341l-0.011-0.007c-0.315-0.021-0.534-0.035-0.628-0.041
						C189.689,1.299,189.88,1.313,190.248,1.341z"/>
					<path fill="#E04037" d="M190.601,1.355c-0.025-0.001-0.047-0.002-0.073-0.004C190.555,1.373,190.571,1.381,190.601,1.355z"/>
					<path fill="#E04037" d="M193.716,1.755c-0.439,0.099-1.352,0.185-0.482,0.408C193.55,2.031,193.055,1.904,193.716,1.755z"/>
					<path fill="#E04037" d="M190.951,1.639l0.782,0.085c-0.012-0.057-0.151-0.146,0.067-0.195L190.951,1.639z"/>
					<polygon fill="#E04037" points="190.564,1.689 190.951,1.639 190.662,1.607 					"/>
					<path fill="#E04037" d="M186.815,1.099c-0.343,0.077-0.714,0.068-1.134,0.063c0.447,0.063,0.91,0.107,1.354,0.127
						C187.098,1.225,187.296,1.113,186.815,1.099z"/>
					<path fill="#E04037" d="M188.482,1.235c-0.023,0.003-0.053,0.006-0.074,0.009C188.453,1.264,188.489,1.272,188.482,1.235z"/>
					<polygon fill="#E04037" points="181.556,0.969 181.621,1.011 181.637,0.975 					"/>
					<path fill="#E04037" d="M187.108,1.333c0.335,0.057,0.539,0.014,0.733-0.043c-0.252,0.01-0.521,0.011-0.809,0
						C187.005,1.318,187,1.338,187.108,1.333z"/>
					<path fill="#E04037" d="M184.322,0.883c0.176,0.053,0.372,0.1,0.581,0.145C184.734,0.952,184.388,0.83,184.322,0.883z"/>
					<path fill="#E04037" d="M188.294,1.18l0.053-0.007C188.237,1.122,188.25,1.145,188.294,1.18z"/>
					<path fill="#E04037" d="M188.294,1.18c-0.174,0.023-0.312,0.069-0.451,0.11c0.205-0.007,0.396-0.022,0.564-0.045
						C188.364,1.227,188.326,1.202,188.294,1.18z"/>
					<path fill="#E04037" d="M180.261,2.282c0.066-0.195,0.96-0.336,1.718-0.089c0.758-0.113,0.288-0.787-0.356-1.182
						c-0.027,0.085-0.029,0.165-0.81,0.246c0.269,0.12,1.712,0.333,1.052,0.481c-1.029,0.055-0.839-0.109-1.335-0.237
						c0.416,0.266-1.317,0.298-1.106,0.671l0.904-0.086C180.343,2.144,180.013,2.219,180.261,2.282z"/>
					<path fill="#E04037" d="M183.1,1.1l0.317-0.01c-0.36-0.052-0.619-0.143-1.094-0.32c-0.535,0.072-0.648,0.141-0.688,0.205
						l1.57,0.101L183.1,1.1z"/>
					<path fill="#E04037" d="M184.852,1.156c-0.257,0.204-1.026,0.26-0.565,0.515c0.938,0.029,0.662-0.149,1.228-0.217
						c-1.515-0.017,0.438-0.1-0.649-0.272c0.299-0.023,0.566-0.022,0.818-0.019c-0.271-0.039-0.533-0.083-0.778-0.135
						c0.015,0.006,0.022,0.01,0.034,0.015h0.007l-0.001,0.003c0.064,0.03,0.084,0.047,0.012,0.028
						c-0.004,0.003-0.021,0.003-0.031,0.003C184.914,1.106,184.882,1.131,184.852,1.156c-0.437-0.066-0.065-0.061,0.071-0.08
						c0.006-0.01,0.019-0.02,0.021-0.031l-0.006-0.003l-1.521,0.048C183.738,1.135,184.139,1.147,184.852,1.156z"/>
					<path fill="#E04037" d="M192.405,2.588c-0.046-0.021-0.043-0.036-0.046-0.052C192.261,2.558,192.223,2.574,192.405,2.588z"/>
					<path fill="#E04037" d="M191.789,2.429c0.111-0.024,0.207-0.106,0.563-0.068c0.308,0.08-0.006,0.104,0.007,0.175
						c0.219-0.047,0.762-0.12,0.09-0.256l-0.107,0.024c-0.605-0.102-1.379-0.407-1.271-0.432
						C191.24,2.075,191.392,2.22,191.789,2.429z"/>
					<path fill="#E04037" d="M188.276,1.846l-1.267,0.047l0.636,0.216l-0.028-0.114C188.333,2.072,188.184,1.927,188.276,1.846z"/>
					<polygon fill="#E04037" points="181.416,0.855 181.589,0.636 180.851,0.923 					"/>
					<polygon fill="#E04037" points="179.775,0.807 179.843,0.611 179.405,0.711 					"/>
					<path fill="#E04037" d="M87.423,5.427L87.06,5.516C87.232,5.483,87.343,5.454,87.423,5.427z"/>
					<path fill="#E04037" d="M90.093,5.207l0.057-0.103C90.031,5.168,89.983,5.212,90.093,5.207z"/>
					<path fill="#E04037" d="M139.471,0.51c-0.544-0.175-1.153-0.45-1.084-0.229l0.17,0.214
						C138.934,0.449,139.223,0.468,139.471,0.51z"/>
					<path fill="#E04037" d="M111.938,2.665l0.161,0.058c0.127-0.081,0.246-0.157,0.354-0.227
						C112.298,2.547,112.123,2.604,111.938,2.665z"/>
					<path fill="#E04037" d="M111.604,3.582l-0.717-0.102C111.048,3.52,111.279,3.555,111.604,3.582z"/>
					<path fill="#E04037" d="M72.872,6.932l-0.407,0.257C73.138,7.129,72.83,7.044,72.872,6.932z"/>
					<path fill="#E04037" d="M162.968,0.598c-0.467-0.092-0.838-0.133-1.162-0.149C162.365,0.582,162.816,0.776,162.968,0.598z"/>
					<path fill="#E04037" d="M88.286,3.041C88.063,3.1,87.969,3.152,87.98,3.2C88.21,3.143,88.338,3.09,88.286,3.041z"/>
					<path fill="#E04037" d="M160.458,0.429c0.084,0.019,0.162,0.036,0.246,0.055c0.342-0.031,0.686-0.055,1.102-0.035
						C161.392,0.35,160.917,0.285,160.458,0.429z"/>
					<path fill="#E04037" d="M20.25,13.786c-0.041-0.002-0.083-0.004-0.123-0.007C20.12,13.811,20.173,13.803,20.25,13.786z"/>
					<path fill="#E04037" d="M4.62,14.109c0.148-0.039,0.394-0.078,0.625-0.119C5.129,13.994,4.94,14.025,4.62,14.109z"/>
					<path fill="#E04037" d="M173.175,0.581C173.523,0.572,173.231,0.558,173.175,0.581L173.175,0.581z"/>
					<path fill="#E04037" d="M174.846,1.465c-0.075,0.023-0.132,0.053-0.142,0.104C174.734,1.517,174.783,1.484,174.846,1.465z"/>
					<path fill="#E04037" d="M156.981,1.725c-0.011,0-0.019,0-0.03-0.001C157.055,1.768,157.037,1.76,156.981,1.725z"/>
					<path fill="#E04037" d="M173.696,0.688c-0.13-0.029-0.278-0.053-0.442-0.072C173.326,0.635,173.46,0.658,173.696,0.688z"/>
					<path fill="#E04037" d="M173.63,0.584c0.119,0.01,0.214,0.018,0.304,0.026C173.978,0.574,173.938,0.551,173.63,0.584z"/>
					<path fill="#E04037" d="M172.689,0.585c0.2,0,0.387,0.013,0.562,0.031c-0.066-0.016-0.096-0.028-0.076-0.035
						C173.074,0.582,172.929,0.583,172.689,0.585z"/>
					<path fill="#E04037" d="M48.315,9.068c-0.024-0.004-0.049-0.006-0.077-0.01C47.903,9.198,48.054,9.162,48.315,9.068z"/>
					<path fill="#E04037" d="M130.466,2.927l0.039-0.011c-0.016-0.002-0.035-0.004-0.051-0.006L130.466,2.927z"/>
					<path fill="#E04037" d="M129.225,3.111c0.522-0.28,0.827-0.252,1.229-0.202l-0.429-0.618L129.225,3.111z"/>
					<path fill="#E04037" d="M81.04,6.049l0.89,0.118c-1.023,0.412-1.795,0.368-0.951,0.569c0.062-0.687,3.38-0.366,3.442-1.052
						l0.587,0.092c-0.166,0.008-0.188,0.05-0.352,0.057c1.146,0.226,0.788-0.562,2.238-0.592c0.505,0.008,0.864,0.076,0.528,0.186
						l1.106-0.266c0.326-0.015,0.256,0.109-0.069,0.125l1.702-0.204L90.15,5.104c0.235-0.128,0.773-0.34,1.038-0.433
						c0.442,0.059-0.211,0.09-0.094,0.166l0.932-0.247C92.425,4.731,91.655,4.97,91,5.002c0.935,0.599,0.772-0.239,2.706-0.011
						l-0.885,0.165c0.603,0.334,1.289,0.133,2.314,0.285c-0.248-0.104-2.064-0.427-1.05-0.686c0.292,0.026,0.675,0.017,1.219-0.167
						c0.021,0.24,0.558,0.134,1.233,0.061l-0.024,0.323c0.724-0.146,0.657-0.294,1.078-0.464c0.817-0.012,1.004,0.226,1.21,0.424
						c1.311-0.019-0.929-0.348,0.614-0.491c1.096,0.064,1.849-0.107,3.139-0.367c0.768,0.069-0.121,0.203,0.158,0.279l0.658-0.29
						c0.166-0.003,0.117,0.078,0.092,0.119c0.563-0.129,0.027-0.321,0.917-0.456c0.22-0.364,1.865,0.417,2.949-0.042
						c0.277,0.076-0.121,0.203-0.031,0.322c1.502-0.343,1.291-0.26,2.519-0.679l1.073,0.153c-0.793-0.198,0.188-0.535,1.051-0.815
						c-0.283-0.101-0.525-0.189-0.688-0.229l1.388-0.246c0.171,0.043,0.036,0.16-0.185,0.306c0.09-0.033,0.178-0.064,0.25-0.09
						c0.504,0.091,0.254,0.29-0.093,0.487l-0.513-0.17c-0.334,0.212-0.646,0.444-0.564,0.627c0.088-0.042,0.262-0.083,0.452-0.11
						c-0.087,0.057-0.142,0.107-0.1,0.137c0.05,0.031,0.19-0.047,0.416-0.141l0.334,0.339l0.069-0.146l1.834,0.125
						c1.287-0.428,2.398-1.016,4.465-1.273c-0.504,0.289-0.094,0.433-0.108,0.744c-0.578-0.297-1.599,0.225-2.673,0.215
						c0.561,0.004,0.443,0.158,0.304,0.218l1.9-0.4c-0.032,0.255,0.413,0.168,0.919,0.246c-0.398-0.48,1.412-0.409,2.188-0.604
						c0.053,0.166-0.127,0.347-1.078,0.357c1.062,0.331,1.332-0.683,2.373-0.372c-0.231,0.008-0.356-0.016-0.445,0.072
						c0.537-0.16,1.867-0.065,1.561,0.087l-0.232,0.008c1.545,0.031,4.695-0.082,4.914-0.511c0.016,0.054-0.188,0.516-0.278,0.604
						l2.715-1.481c-0.233,0.37,0.718,1.222-0.556,1.452c0.369,0.045,0.824,0.098,1.596-0.044c-0.252-0.048-0.639-0.517-0.297-0.557
						c0.949,0.39,0.658,0.206,1.824,0.531c-0.377-0.072,0.027-0.652,0.621-0.645c-0.092,0.088,0.062,0.564-0.154,0.628l1.466-0.589
						c-0.367,0.108-0.056,0.478,0.276,0.63c-0.154-0.107,1.277-0.013,1.67-0.076l-0.629-0.119c1.668,0.055,1.635-0.82,3.291-0.821
						c-0.198,0.12-0.485,0.724,0.355,0.779c0.383-0.295,1.691-1.416,3.157-1.665l0.282,0.16l1.123-0.208
						c-0.698,0.446-2.654,1.394-3.721,1.768c0.625,0.119,0.176,0.191,1.108,0.159c0.332,0.148-0.506,0.243-0.78,0.257l2.174,0.06
						c-0.099-0.334,1.66-0.368,1.575-0.646l-2.358,0.392c-0.1-0.334,1.357-0.979,2.901-0.948c0.392,0.127-0.29,0.604-0.258,0.715
						c0.2-0.12,1.462-0.248,1.604-0.168L146.682,2.7c0.858,0.111,1.399-0.471,2.431-0.169c0.355,0.01,1.062,0.445,1.125,0.243
						c-0.581-0.393-0.695-1.581-0.309-1.863c0.125,0.028,1.871,0.396,2.277,0.591c0.586,0.31-0.883,0.703-0.384,0.969
						c0.022-0.091,0.347-0.2,0.481-0.234c0.373,0.084-0.155,0.282,0.656,0.253c0.137-0.339,1.652,0.054,0.385-0.282
						c0.796-0.085,0.846,0.083,1.779,0.083c-0.297-0.225,0.842-0.737,1.64-0.822c-0.048,0.086,0.13,0.202,0.217,0.254
						c1.63,0.056,2.504,0.225,4.022,0.251c0.14,0.084,0.871,0.196,0.558,0.337c0.22-0.057,0.421-0.169,0.89-0.17
						c0.903,0.309-1.045,0.03-0.357,0.394c0.062-0.197,1.216-0.254,1.885-0.368c-0.201-0.309-1.542-0.083-2.212,0.031
						c0.003-0.422,1.173-0.846,2.766-1.016c1.265-0.085,0.544,0.281,0.765,0.224c2.371,0.111,2.035-0.705,4-0.371
						c0.775,0.281,0.023,0.536,0.192,0.732c-1.028,0.086-1.573-0.195-2.272-0.195l0.856,0.141c-0.329,0.084-1.018,0.141-1.391,0.058
						c0.649,0.251,4.006,0.108,5.832,0.359c0.325-0.085,0.89-0.169,0.627-0.282l-0.58,0.029c-0.526-0.225,1.099-0.283,0.366-0.396
						c0.781-0.141,1.658-0.366,2.75-0.227l0.197,0.31c-0.021-0.09-0.709-0.194-1.021-0.105c0.46-0.128,1.665,0.441,2.176,0.047
						l-0.761-0.224c0.786-0.14,1.761-0.457,2.729-0.335c-0.433-0.319-0.227,0.028-0.904-0.339c0.584,0.45-2.48-0.057-1.534,0.421
						c-0.695-0.422-1.22-0.193-2.136-0.558c0.025,0.101,0.324,0.198-0.489,0.136c-0.038,0.029-0.127,0.065-0.183,0.086
						c-0.023-0.004-0.033-0.005-0.056-0.008l0.045,0.013c-0.034,0.014-0.038,0.018,0.017,0.004c0.193,0.047,0.351,0.103,0.412,0.161
						c-0.41,0.226-1.705,0.198-2.146,0.312c-0.481-0.056,0.205-0.113-0.058-0.225l-0.658,0.169
						c-0.061-0.225-1.275-0.393-0.133-0.506l-1.025-0.026c-0.602-0.135-1.43-0.198-1.943-0.112c-0.482-0.056-1.227,0.23-0.803,0.061
						l-1.609,0.114l-0.013-0.056c-1.587-0.053-3.271,0.321-5.077-0.112c-0.535,0.048-1.088,0.109-1.979,0.032l-0.173-0.197
						c-0.687,0.057-2.059-0.226-2.354-0.028c-0.736-0.534-3.328-0.166-4.533-0.277l-0.045,0.253
						c-0.83-0.021-1.627,0.019-2.656,0.132l0.063,0.223c-0.888,0.2-2.284-0.118-3.688-0.069c0.095-0.087,0.451-0.072,0.703-0.024
						c-1.683-0.476-3.537,0.433-5.062,0.092c-0.378,0.088-0.653,0.065-0.92,0.014c0.034-0.001,0.067-0.006,0.094-0.013
						c-0.039,0-0.096,0-0.155,0c-0.168-0.035-0.347-0.072-0.527-0.11c0.158,0.052,0.312,0.094,0.443,0.112
						c-0.293,0.01-0.735,0.046-1.17,0.11l-0.188-0.237c-0.036,0.003-0.063,0.005-0.103,0.009c-0.428-0.082-0.341,0.12-0.109,0.297
						c-0.219,0.044-0.42,0.095-0.572,0.156c-0.354-0.382-1.139,0.152-1.619-0.254c-0.289,0.208-2.184,0.192-2.406,0.622
						c-0.016-0.055-0.145-0.079,0.09-0.087c-0.483-0.04-0.969-0.079-1.401,0.049l-0.212-0.303l-1.049,0.431
						c-0.647-0.175-0.916-0.278-0.284-0.525c-1.532,0.39-1.247,0.159-2.548,0.542l0.059-0.199c-0.469,0.016-1.21,0.294-1.496,0.136
						c-1.061-0.35-5.188,0.003-7.888-0.149c0.544,0.554-1.261-0.195-1.349,0.262c-0.162-0.129-0.541-0.187-0.109-0.33
						c-1.366,0.208-2.071-0.108-3.002,0.322c-0.164-0.13,0.283-0.218,0.142-0.292c-0.108,0.035-0.431,0.143-0.577,0.068
						c-0.144-0.075,0.195-0.126,0.41-0.198c-1.4,0.098-1.523,0.53-1.605,0.934c-0.717-0.151-1.071-0.105-1.569,0.183
						c-0.254-0.117-0.674-0.231,0.194-0.325c-0.49,0.007-3.002-0.032-3.035,0.29c-0.157-0.073-0.686,0.013-0.812,0.057
						c-1.1,0.04-1.197,0.016-2.273,0.104l0.302,0.036c-0.403,0.408-0.892,0.134-1.758,0.226l0.023-0.041
						c-2.013-0.171-0.854,0.179-2.84-0.033l0.123,0.233c-0.15,0.524-1.763-0.21-2.892,0.047l0.421,0.115
						c-0.611,0.211-1.791-0.612-2.422-0.633c-0.139-0.033,0.209-0.092,0.398-0.132c-1.66-0.178-0.19,0.327-1.405,0.503
						c-0.236-0.149,0.26-0.455-0.565-0.415c-0.419-0.101-2.339,0.757-3.484,0.531c0.257,0.108,0.511,0.217-0.046,0.365
						c-0.864,0.123-2.387-0.287-3.137,0.192C88.031,3.263,87.988,3.232,87.98,3.2c-0.656,0.164-2.143,0.365-2.522,0.622
						c-0.686-0.771-4.088,0.762-4.142,0l-2.038,0.219l0.046-0.083c-1.31,0.064-1.754,0.287-2.193,0.51
						c-0.307-0.026-0.093-0.116-0.073-0.158c-1.92,0.014-2.108,0.063-3.667,0.581L73.2,4.66c-0.42,0.158-2.791-0.097-4.624,0.415
						c0.015-0.03,0.048-0.083,0.193-0.135c-2.064,0.538-5.098-0.088-5.764,0.9l-1.359,0.385c1.797-0.143-0.22,0.42,0.533,0.482
						c-0.697,0.136-1.851-0.054-0.991-0.203l0.141,0.029c0.262-0.505-2.243,0.098-2.233-0.226c-3.518,0.44-6.984,0.59-10.286,0.961
						l0.427,0.318l-1.152,0.121c-0.312-0.039-0.442-0.23,0.379-0.323c-0.459-0.154-1.351,0.367-1.362,0.447
						c-1.622,0.084,0.569-0.513,0.076-0.451l-0.663,0.123l0.156,0.021c-0.521,0.226-0.548,0.39-1.534,0.514
						c-0.632,0.017-0.349-0.177-0.596-0.156c-0.001-0.026-0.086-0.026-0.377,0.044l-1.449,0.178l0.617,0.203
						c-0.621,0.233-1.361,0.181-0.65,0.409c-1.046-0.358-5.413,0.599-6.035,0.529c-0.867,0.338-1.752,0.462-2.853,0.595
						c0.282,0.021,0.491,0.318-0.46,0.415c0.249-0.712-1.773-0.038-2.609-0.403c0.73,0.217-2.677,0.465-1.538,0.76
						c-0.796,0.061-0.084-0.241-0.708-0.312c-1.839,0.53-4.167,0.416-6.467,0.896c-0.022,0.094,0.387,0.164-0.09,0.373l-1.291-0.234
						c-0.451,0.116-0.342,0.568-1.224,0.402c0.129,0.056,0.323,0.137,0.02,0.215c-4.603,0.312-9.208,1.852-13.945,1.806
						c0.651,0.066,0.239,0.151-0.237,0.234c0.317-0.011,0.03,0.216,0.109,0.323L3.371,14.3c-0.297,0.384-2.063,0.358-2.212,0.703
						l0.601-0.155c-0.749,0.5,1.274,0.633,1.234,1.125c0.839-0.565,2.498,0.23,3.89-0.611c0.344,0.043-0.257,0.199-0.062,0.279
						c0.344-0.265,0.792-0.381,1.654-0.427l-0.088,0.065c2.367-0.436,3.418-0.4,6.107-0.701l-0.234-0.201
						c0.578-0.062,0.711-0.009,0.988,0.006c0.601-0.461-1.613,0.242-1.076-0.246c0.837,0.354,4.044-0.65,4.644-0.191
						c0.883-0.141-0.301-0.229,0.582-0.369l0.256,0.107l0.193-0.225c0.583-0.062,0.903,0.072,0.944,0.191
						c-0.143,0.01-0.393,0.101-0.542,0.136c0.777,0.051,2.105-0.402,2.371-0.388l-0.861,0.047c2.382-0.549,5.358-0.774,7.645-1.405
						l-0.193-0.085c1.75-0.462,1.444-0.085,3.385-0.461l-0.068,0.035c0.375-0.165,0.89-0.297,1.427-0.361
						c-0.475,0.201,0.964,0.118,0.338,0.355c1.899-0.5,0.931-0.312,2.146-0.905l0.321,0.141c0.41-0.229,0.434-0.321,1.403-0.51
						c-0.778,0.272,0.663,0.188-0.204,0.526c2.104,0.105,2.986-0.844,4.007-0.393c0.87-0.644-1.812-0.025-1.301-0.211
						c-0.465-0.104,0.724-0.492,1.375-0.533c0.656-0.084,1.203,0.489,2.848,0.242c-0.165,0.021-0.171,0.061-0.334,0.082
						c0.634,0.041,1.183-0.35,1.967-0.248c0.382-0.367,0.984-0.123,1.053-0.533l-1.498,0.31c0.843-0.22,1.582-0.817,3.026-0.767
						c-0.099,0.096-0.506,0.242-0.787,0.344c0.427,0.059,0.786-0.174,1.23-0.107c-0.072,0.396-1.829,0.312-2.704,0.755
						c0.463,0.103,1.696-0.534,1.292-0.042c0.59-0.641,1.635-0.131,2.698-0.682l-0.043,0.244c0.172-0.059,0.525-0.213,0.851-0.245
						l-0.551,0.375c0.873-0.367,1.774,0.021,2.624-0.224c-1.816,0.223-0.443-0.235-1.234-0.315c2.203-0.582,1.367,0.462,3.862,0.052
						c-0.335,0.073-1.293,0.01-0.775-0.162c0.483-0.009,1.125,0.008,1.433,0.096c1.657-0.246-0.284-0.21,0.406-0.439
						c0.601,0.22,0.803-0.214,1.521-0.392l0.035,0.239c1.913-0.071,0.442-0.559,2.172-0.576L60.45,8.062l0.88-0.191l-0.152,0.294
						c0.945-0.317,1.252-0.301,2.208-0.336c-0.24-0.143,0.075-0.45,0.914-0.557c0.588,0.075-0.296,0.266,0.891,0.09
						c-0.251,0.182-0.525,0.405-1.068,0.246C64.08,7.692,63.875,7.79,63.83,7.874c0.635,0.091,1.553-0.146,1.983-0.2
						c-0.167,0.011-0.366,0.021-0.471-0.001l1.688-0.537c0.281,0.058,0.073,0.156-0.132,0.251c0.347-0.067,0.576-0.206,1.087-0.287
						c-0.111,0.21-0.058,0.408-0.774,0.585l1.618-0.411c0.12,0.071,0.868,0.132,0.664,0.229c0.922,0.015,2.192-0.661,3.418-0.618
						c0.059-0.043,0.181-0.09,0.436-0.141c1.144-0.055,2.175,0.096,3.498-0.29l0.799,0.283c1.049-0.172-1.079-0.35,0.668-0.636
						c1.235-0.221,0.493,0.257,0.94,0.317c0.602-0.231,1.646-0.684,2.817-0.499C81.693,6.018,81.39,5.992,81.04,6.049z
						 M94.059,4.752c-0.249,0.073-0.74,0.272-0.935,0.147C93.39,4.599,93.623,4.711,94.059,4.752z M113.887,3.025
						c-0.185,0.09-0.478,0.066-0.812-0.008C113.313,2.984,113.583,2.979,113.887,3.025z M169.355,0.718l-0.025,0.011
						C168.763,0.627,168.964,0.667,169.355,0.718z M170.531,0.841c0.119-0.032,0.111-0.065,0.062-0.1
						c-0.084,0.06-0.348,0.06-0.649,0.038C170.026,0.844,170.179,0.89,170.531,0.841z M44.423,7.989l0.235,0.03
						C44.156,8.161,44.292,8.079,44.423,7.989z"/>
					<path fill="#E04037" d="M111.649,3.475c-0.073-0.037-0.096-0.081-0.114-0.125C111.438,3.396,111.438,3.442,111.649,3.475z"/>
					<path fill="#E04037" d="M72.948,6.884h-0.04c-0.021,0.016-0.031,0.032-0.036,0.047L72.948,6.884z"/>
					<path fill="#E04037" d="M152.291,2.604c-0.242-0.039-0.377-0.085-0.467-0.132C151.812,2.532,151.921,2.583,152.291,2.604z"/>
					<path fill="#E04037" d="M176.781,0.528l-0.755,0.051c0.364-0.006,0.493,0.048,0.677,0.089
						C176.688,0.612,176.546,0.528,176.781,0.528z"/>
					<path fill="#E04037" d="M183.272,2.259c0.11-0.024,0.231,0.008,0.343-0.017l-0.025-0.113
						C183.121,2.114,182.791,2.189,183.272,2.259z"/>
					<path fill="#E04037" d="M177.457,1.34c0.053,0.204,0.527,0.142,1.058,0.113c-0.031,0-0.062-0.001-0.095-0.001
						C178.585,1.17,178.02,1.255,177.457,1.34z"/>
					<path fill="#E04037" d="M178.637,1.448c0.163-0.009,0.329-0.005,0.487,0.012C179.189,1.351,178.928,1.421,178.637,1.448z"/>
					<path fill="#E04037" d="M172.027,0.73c0.249,0.056,0.164-0.257,0.305-0.172C172.617,0.304,170.653,0.844,172.027,0.73z"/>
					<polygon fill="#E04037" points="177.864,2.015 177.683,1.762 177.38,1.958 					"/>
					<path fill="#E04037" d="M173.703,1.767l0.842,0.083c-0.012-0.042,0.096-0.065,0.229-0.082
						C174.253,1.75,173.685,1.692,173.703,1.767z"/>
					<path fill="#E04037" d="M174.772,1.767c0.271,0.009,0.528,0.007,0.681-0.031C175.306,1.736,174.989,1.74,174.772,1.767z"/>
					<polygon fill="#E04037" points="176.708,2.072 176.46,2.016 175.867,1.988 					"/>
					<path fill="#E04037" d="M164.639,1.578l-0.923,0.058c-0.096,0.084,0.154,0.141,0.498,0.111
						C164.436,1.691,164.778,1.663,164.639,1.578z"/>
					<path fill="#E04037" d="M167.408,2.307c-0.246-0.056-0.263-0.112-0.402-0.196l-0.032,0.31L167.408,2.307z"/>
					<path fill="#E04037" d="M164.726,2.338c-0.094,0.085-1.339,0.227-0.173,0.225C164.647,2.479,165.569,2.422,164.726,2.338z"/>
					<polygon fill="#E04037" points="150.869,1.731 151.104,1.73 151.07,1.221 					"/>
					<path fill="#E04037" d="M138.669,3.121c1.092,0.102,0.254-0.319,1.24-0.185c0.254-0.125-0.806-0.11-0.546-0.218
						C138.71,2.857,138.363,2.792,138.669,3.121z"/>
					<path fill="#E04037" d="M139.364,2.718c0.104-0.022,0.218-0.049,0.335-0.084C139.509,2.67,139.419,2.696,139.364,2.718z"/>
					<polygon fill="#E04037" points="2.038,14.251 1.328,14.259 1.803,14.355 					"/>
					<path fill="#E04037" d="M0.771,14.84l-0.217-0.294l-0.367,0.356C0.341,14.864,0.639,14.787,0.771,14.84z"/>
					<path fill="#E04037" d="M96.044,5.235l0.047-0.083c-0.113-0.075-0.278-0.066-0.605-0.051L96.044,5.235z"/>
					<polygon fill="#E04037" points="86.571,5.821 86.734,5.813 86.405,5.547 					"/>
					<path fill="#E04037" d="M78.672,6.888c0.325-0.016,0.698-0.114,1.026-0.131C78.997,6.872,78.549,6.531,78.672,6.888z"/>
				</g>
			</g>
		</g>
	</g>
</g>
</svg>
