<svg xmlns="http://www.w3.org/2000/svg" width="16.203" height="15.828" viewBox="0 0 16.203 15.828"><path fill="none" stroke="#B8BBBC" stroke-width=".5" stroke-miterlimit="10" d="M15.904 7.93c0 2.87-10.014 7.335-10.393 7.404 2.476-1.679 6.844-9.193 4.387-12.601 1.201-.001 3.119.408 3.998 1.094a5.188 5.188 0 0 1 2.008 4.103z"/><path fill="none" stroke="#000" stroke-width=".5" stroke-miterlimit="10" d="M10.707 5.519c0 2.87-4.358 9.815-5.196 9.815S.315 8.389.315 5.519A5.191 5.191 0 0 1 5.511.322 5.16 5.16 0 0 1 8.7 1.416a5.186 5.186 0 0 1 2.007 4.103z"/><circle fill="#21A2C6" cx="5.511" cy="5.332" r="1.526"/></svg>