<svg xmlns="http://www.w3.org/2000/svg" width="18.044" height="15.335" viewBox="0 0 18.044 15.335"><path d="M12.527 14.031c-.27 0-.449-.008-.449-.008H6.373C2.859 14.023 0 11.18 0 7.686c0-3.514 2.9-6.372 6.464-6.372 3.565 0 6.464 2.85 6.464 6.354v2.311c0 1.136.662 1.639 1.246 2.083.371.282.721.55.838.942a.529.529 0 0 1-.082.485c-.268.362-1.076.542-2.403.542zM6.464 1.753C3.142 1.753.439 4.414.439 7.686c0 3.251 2.663 5.899 5.934 5.899h5.717c.012.001.182.008.438.008 1.312 0 1.924-.196 2.051-.365.018-.025.027-.051.012-.097-.074-.257-.355-.471-.684-.72-.598-.455-1.416-1.078-1.416-2.432v-2.31c-.001-3.263-2.704-5.916-6.027-5.916z"/><path fill="#21A2C6" d="M9.117 6.759H3.355a.26.26 0 0 1-.262-.26c0-.146.117-.264.262-.264h5.761a.262.262 0 0 1 .001.524zm0 1.572H3.355a.262.262 0 1 1 0-.524h5.761a.262.262 0 0 1 .001.524zm-1.31 1.572H3.355a.262.262 0 0 1 0-.524h4.452a.261.261 0 1 1 0 .524z"/></svg>