<svg xmlns="http://www.w3.org/2000/svg" width="75.28" height="36.23" viewBox="0 0 75.28 36.23"><g fill="#E04037"><path opacity=".5" d="M17.388 29.43c-6.106 0-11.094-5.064-11.096-11.181-.003-6.116 4.983-11.355 11.089-11.357 3.899-.002 7.313 1.386 9.301 4.809l5.615-.003c-2.395-5.988-8.168-9.849-14.918-9.846-8.872.001-16.087 7.325-16.084 16.207.002 8.875 7.225 16.32 16.097 16.32 6.75-.004 12.517-3.012 14.912-9.861l-5.624.004c-1.977 3.422-5.392 4.906-9.292 4.908z"/><path d="M58.594 2.61a2.513 2.513 0 0 0-3.539.002c-.963.983-.965 2.301.006 3.272l9.5 9.218-39.959.015c-1.03-3.414-3.868-4.871-7.223-4.869-4.218.002-7.637 3.557-7.637 7.784 0 4.22 3.427 7.942 7.646 7.94 3.342-.002 6.189-1.444 7.217-4.857l39.639-.019-9.176 8.949c-.965.971-.967 2.45.002 3.429.498.486 1.125.678 1.766.676.645 0 1.287-.27 1.771-.754l15.377-15.405L58.594 2.61z"/></g></svg>