<svg xmlns="http://www.w3.org/2000/svg" width="32" height="32" viewBox="0 0 32 32"><path fill="#E04037" d="M13.219 30.371l-.352.355a4.224 4.224 0 0 0 2.982 1.225 4.228 4.228 0 0 0 2.985-1.225L30.717 18.96h.001a4.161 4.161 0 0 0 1.233-2.961 4.144 4.144 0 0 0-1.234-2.957L18.835 1.271A4.228 4.228 0 0 0 15.853.049a4.252 4.252 0 0 0-2.988 1.221l-.001.001-.001.001a4.18 4.18 0 0 0 0 5.92l.012.012 5.065 4.412H4.412a4.362 4.362 0 0 0-4.363 4.359 4.362 4.362 0 0 0 4.363 4.362h13.575l-5.108 4.459-.012.012a4.171 4.171 0 0 0-1.229 2.959c0 1.069.411 2.143 1.229 2.958v.001l.352-.355.353-.354a3.174 3.174 0 0 1 0-4.501l-.353-.354.329.377 7.104-6.201H4.412a3.366 3.366 0 0 1-3.363-3.362 3.366 3.366 0 0 1 3.363-3.359h16.2l-7.068-6.154-.328.377.354-.354a3.166 3.166 0 0 1-.935-2.252c0-.816.31-1.628.935-2.252l-.003.002a3.247 3.247 0 0 1 2.287-.934c.827 0 1.648.31 2.279.933l11.882 11.771c.626.62.938 1.43.938 2.246 0 .816-.312 1.629-.938 2.25h.001L18.132 30.016a3.235 3.235 0 0 1-2.282.936 3.222 3.222 0 0 1-2.278-.936l.001.001-.354.354z"/></svg>