<svg xmlns="http://www.w3.org/2000/svg" width="34.261" height="37" viewBox="-1.63 0 34.261 37"><g fill="#58595B"><path d="M8.029 17.43a2.16 2.16 0 0 1-2.158-2.158 2.16 2.16 0 0 1 2.158-2.158c1.19 0 2.159.968 2.159 2.158s-.969 2.158-2.159 2.158zm0-3.576a1.419 1.419 0 1 0 .003 2.837 1.419 1.419 0 0 0-.003-2.837zm6.167 3.576a2.161 2.161 0 0 1-2.159-2.158 2.16 2.16 0 0 1 2.159-2.158c1.189 0 2.158.968 2.158 2.158s-.969 2.158-2.158 2.158zm0-3.576a1.42 1.42 0 0 0 0 2.837 1.42 1.42 0 0 0 0-2.837zm6.167 3.576a2.161 2.161 0 0 1-2.16-2.158c0-1.19.969-2.158 2.16-2.158 1.189 0 2.158.968 2.158 2.158a2.16 2.16 0 0 1-2.158 2.158zm0-3.576a1.419 1.419 0 1 0 .002 2.838 1.419 1.419 0 0 0-.002-2.838z"/><path d="M5.455 32.418a.37.37 0 0 1-.371-.371v-5.734h-.178a6.545 6.545 0 0 1-6.537-6.537V9.538a6.544 6.544 0 0 1 6.537-6.537h18.578a6.543 6.543 0 0 1 6.535 6.537v6.406a.368.368 0 1 1-.738 0V9.538c0-3.196-2.6-5.797-5.797-5.797H4.907A5.803 5.803 0 0 0-.889 9.538v10.237c0 3.197 2.6 5.797 5.796 5.797h.547a.37.37 0 0 1 .37.369v5.213l5.473-5.473a.371.371 0 0 1 .261-.109h1.417c.204 0 .371.166.371.369a.372.372 0 0 1-.371.371h-1.262l-5.997 5.996a.368.368 0 0 1-.261.11z"/><path d="M28.072 33.998a.373.373 0 0 1-.262-.107l-3.701-3.701h-7.285a4.224 4.224 0 0 1-4.219-4.219c0-.203.166-.398.37-.398h10.51a5.804 5.804 0 0 0 5.797-5.797v-3.832a.371.371 0 0 1 .49-.35 4.216 4.216 0 0 1 2.859 3.99v6.387a4.224 4.224 0 0 1-4.189 4.219v3.439a.371.371 0 0 1-.37.369zm-14.707-7.686a3.486 3.486 0 0 0 3.459 3.137h7.438c.1 0 .195.039.264.107l3.176 3.178v-2.916a.37.37 0 0 1 .371-.369h.342a3.483 3.483 0 0 0 3.477-3.479v-6.385c0-1.31-.732-2.491-1.871-3.083v3.272c0 3.604-2.932 6.537-6.535 6.537H13.365v.001z"/><path d="M23.484 26.312h-10.51a.37.37 0 0 1 0-.74h10.51c3.197 0 5.797-2.6 5.797-5.797v-3.831a.37.37 0 1 1 .738 0v3.831a6.542 6.542 0 0 1-6.535 6.537z"/></g></svg>