<svg xmlns="http://www.w3.org/2000/svg" width="78.9" height="72.11" viewBox="0 0 78.9 72.11"><path d="M.006 6.955l1.122 13.46c.095.654.468 1.216 1.122 1.496l22.714 10.47-17.946 9.627c-.654.374-1.122 1.028-1.027 1.776 0 .748.467 1.309 1.214 1.589l10.844 3.739c.279.093.468.093.653.093.281 0 .468 0 .654-.093l23.836-8.413 17.854 6.544c4.394 1.495 9.254-.842 10.749-5.235.75-2.149.655-4.394-.373-6.449-1.027-2.057-2.71-3.552-4.86-4.3l-19.163-7.667L36.837 6.581c-.187-.374-.561-.561-.934-.748l-8.975-3.085c-.653-.187-1.496-.094-1.964.467-.466.562-.653 1.309-.374 1.963l4.955 12.9-15.049-4.86-1.684-8.132c-.467-2.244-2.057-4.021-4.205-4.768-2.15-.654-4.395-.281-6.076 1.027C.754 2.654-.087 4.805.006 6.955zm77.026 61.413H28.423a1.875 1.875 0 0 0-1.869 1.869c0 1.029.842 1.87 1.869 1.87h48.609a1.875 1.875 0 0 0 1.869-1.87c0-1.121-.841-1.869-1.869-1.869z" fill="#E6472D"/></svg>