<svg xmlns="http://www.w3.org/2000/svg" width="78.9" height="72.11" viewBox="0 0 78.9 72.11"><g fill="#E6472D"><path d="M56.073 8.238C52.094 3.008 46.005.044 39.45.044c-6.556 0-12.643 2.964-16.623 8.194a20.953 20.953 0 0 0 0 25.365L38.826 54.52c.155.155.391.312.625.312s.467-.079.623-.312l16-20.917c5.698-7.414 5.698-17.873-.001-25.365zm-1.247 24.43L39.45 52.725 24.074 32.668a19.32 19.32 0 0 1 0-23.493c3.667-4.838 9.288-7.571 15.376-7.571s11.705 2.733 15.376 7.571c5.228 6.946 5.228 16.623 0 23.493z"/><path d="M39.45 8.474c-6.868 0-12.488 5.618-12.488 12.485 0 6.868 5.621 12.488 12.488 12.488 6.868 0 12.486-5.62 12.486-12.488.001-6.867-5.618-12.485-12.486-12.485zm24.247 63.592H15.204a2.223 2.223 0 1 1 0-4.446h48.494c1.228 0 2.222.995 2.222 2.223a2.221 2.221 0 0 1-2.223 2.223z"/></g></svg>