<svg xmlns="http://www.w3.org/2000/svg" width="78.9" height="72.11" viewBox="0 0 78.9 72.11"><path fill="#E6472D" d="M74.014 62.277H60.417c.02-3.285-1.534-9.686-.74-14.436.393-2.345 1.93-5.041 2.898-7.25 1.104-2.511 2.883-5.335 2.902-7.255.007-.986-2.171-2.449-5.257-4.015V18.867a4.451 4.451 0 0 0-4.447-4.448h-1.521v-3.782a4.449 4.449 0 0 0-4.446-4.445h-4.474V.337H33.411v5.854h-4.476a4.451 4.451 0 0 0-4.447 4.445v3.784h-1.52a4.452 4.452 0 0 0-4.448 4.446v10.455c-3.083 1.566-5.263 3.029-5.253 4.015.02 1.92 1.796 4.744 2.898 7.255.972 2.209 2.508 4.905 2.901 7.25.793 4.75-.76 11.15-.737 14.436H4.89c-.912 0-1.647.735-1.647 1.646s.735 1.648 1.647 1.648h16.303c5.106 2.288 16.202 5.886 18.18 6.202 1.976-.316 13.076-3.914 18.18-6.202h16.459a1.647 1.647 0 0 0 .002-3.294zm-46.232-51.64c0-.636.518-1.152 1.154-1.152h20.87c.638 0 1.154.517 1.154 1.152v3.784H27.782v-3.784zm-5.969 8.23c0-.638.517-1.153 1.156-1.153h32.805c.639 0 1.158.516 1.158 1.153v8.888c-7.216-3.233-16.53-6.396-17.559-6.384-1.032-.013-10.347 3.151-17.56 6.387v-8.891z"/></svg>