<svg xmlns="http://www.w3.org/2000/svg" width="32" height="32" viewBox="0 0 32 32"><path fill="#E04037" d="M18.78 30.371l.353.355a4.224 4.224 0 0 1-2.982 1.225 4.228 4.228 0 0 1-2.985-1.225L1.283 18.96h-.001a4.161 4.161 0 0 1-1.233-2.961 4.144 4.144 0 0 1 1.234-2.957L13.165 1.271A4.226 4.226 0 0 1 16.147.049a4.247 4.247 0 0 1 2.987 1.221l.002.002.001.001a4.18 4.18 0 0 1 0 5.921l-.012.012-5.065 4.411h13.527a4.362 4.362 0 0 1 0 8.721H14.014l5.108 4.459.012.012a4.171 4.171 0 0 1 1.229 2.959 4.16 4.16 0 0 1-1.229 2.958h-.001v.001l-.353-.356-.353-.354a3.174 3.174 0 0 0 0-4.501l.353-.354-.328.377-7.104-6.201h16.24a3.366 3.366 0 0 0 3.363-3.362 3.366 3.366 0 0 0-3.363-3.359H11.389l7.067-6.154.328.377-.354-.354a3.174 3.174 0 0 0 .936-2.253 3.171 3.171 0 0 0-.936-2.252l.003.002a3.25 3.25 0 0 0-2.286-.934c-.827 0-1.648.31-2.279.933L1.986 13.753a3.147 3.147 0 0 0-.938 2.246c0 .816.312 1.629.938 2.25l11.882 11.767a3.235 3.235 0 0 0 2.282.936c.826 0 1.648-.312 2.278-.936l-.001.001.353.354z"/></svg>