<svg xmlns="http://www.w3.org/2000/svg" width="29" height="37" viewBox="0 0 29 37"><path fill="#58595B" d="M13.829 33.867v.182a.629.629 0 0 0 1.076.444.628.628 0 0 0 .185-.446v-.184a.63.63 0 1 0-1.261.004zm0-5.562V32a.63.63 0 1 0 1.261 0v-3.695a.63.63 0 1 0-1.261 0zm.571-2.721a5.68 5.68 0 0 0-5.673 5.674A5.68 5.68 0 0 0 14.4 36.93a5.68 5.68 0 0 0 5.672-5.672 5.68 5.68 0 0 0-5.672-5.674zm4.412 5.673a4.417 4.417 0 0 1-4.412 4.412c-2.433 0-4.412-1.979-4.412-4.412s1.979-4.411 4.412-4.411a4.417 4.417 0 0 1 4.412 4.411zm9.971-3.052l-.479-2.867c-.561-2.795-5.128-4.283-8.211-4.283a.632.632 0 0 0 0 1.261c2.923 0 6.605 1.429 6.972 3.249l.442 2.653c-.264.511-1.264 2.153-3.57 2.883a.63.63 0 1 0 .38 1.202c3.272-1.035 4.381-3.643 4.427-3.754a.622.622 0 0 0 .039-.344zm-20.077-5.89a.63.63 0 1 0 0-1.261c-3.083 0-7.651 1.488-8.214 4.303l-.475 2.848a.632.632 0 0 0 .039.344c.045.111 1.154 2.719 4.427 3.754a.632.632 0 0 0 .791-.411.63.63 0 0 0-.411-.791c-2.309-.729-3.309-2.375-3.569-2.882l.438-2.635c.368-1.84 4.051-3.269 6.974-3.269zm-1.884-9.578c.378.98 1.49 3.781 2.309 5.007l.073.113c.626.951 1.674 2.541 5.196 2.541 3.52 0 4.569-1.589 5.195-2.54l.075-.113c.816-1.227 1.931-4.028 2.309-5.007a1.582 1.582 0 0 0 1.118-1.511V9.328c0-.647-.39-1.205-.948-1.449v-.924c0-4.321-2.824-6.799-7.749-6.799-6.994 0-7.748 4.755-7.748 6.8v.934c-.549.254-.95.818-.95 1.439v1.897c0 .711.472 1.314 1.12 1.511zm.14-3.409c0-.165.18-.319.319-.319a.63.63 0 0 0 .631-.63V6.955c0-3.571 2.303-5.538 6.487-5.538 5.362 0 6.487 3.012 6.487 5.538v1.423c0 .348.283.63.631.63.176 0 .318.144.318.319v1.898a.319.319 0 0 1-.318.319.63.63 0 0 0-.59.409c-.014.037-1.408 3.743-2.307 5.091l-.078.118c-.55.833-1.303 1.973-4.143 1.973-2.843 0-3.595-1.141-4.143-1.974l-.078-.118c-.898-1.347-2.293-5.054-2.307-5.091a.63.63 0 0 0-.59-.409.32.32 0 0 1-.319-.319V9.328z"/></svg>