<svg xmlns="http://www.w3.org/2000/svg" width="34.261" height="37" viewBox="-1.63 0 34.261 37"><path fill="#58595B" d="M27.559 36.73H3.264c-1.565 0-2.117-.554-2.117-2.118V2.205c0-1.563.552-2.117 2.117-2.117h24.294c1.605 0 2.295.606 2.295 2.118v32.407c.001 1.51-.689 2.117-2.294 2.117zM3.264.955c-.689 0-1.251.561-1.251 1.251v32.407c0 .689.562 1.25 1.251 1.25h24.294c.735 0 1.43-.607 1.43-1.25V2.205c0-.642-.694-1.25-1.43-1.25H3.264z"/><path fill="#58595B" d="M6.774 24.762H23.83v.788H6.774zm2.379 3.967h12.296v.786H9.153zm14.281-17.457h5.95v.788h-5.95zm-21.818 0h5.951v.788H1.616zm13.884 6.34c-3.498 0-5.946-2.447-5.946-5.946s2.447-5.947 5.946-5.947c3.5 0 5.947 2.447 5.947 5.947 0 3.499-2.447 5.946-5.947 5.946zm0-11.026c-2.623 0-5.08 2.455-5.08 5.079 0 2.625 2.457 5 5.08 5 2.624 0 5.08-2.374 5.08-5 0-2.623-2.456-5.079-5.08-5.079z"/><path fill="#58595B" d="M15.08 14.022c-.427 0-.822-.211-1.06-.57l-1.164-1.744a.793.793 0 1 1 1.32-.879l.892 1.337 1.734-2.893a.795.795 0 0 1 1.09-.272.798.798 0 0 1 .271 1.089l-1.988 3.311a1.268 1.268 0 0 1-1.062.62l-.033.001z"/></svg>