<svg xmlns="http://www.w3.org/2000/svg" width="71" height="30" viewBox="0 0 71 30"><g fill="#E04037"><path d="M53.873 11.936h-2.76l-2.451-3.061h-17.91l-1.224-1.531h-1.684V5.813l-6.123-3.062-4.593-1.531-1.226 6.124h-1.838l-3.671 4.592h-2.45l-4.899 6.125H.288L3.35 28.779h55.113l12.25-10.718H58.77l-4.897-6.125zM18.292 3.221l2.842.948 5.181 2.591v.584h-8.849l.826-4.123zM8.68 13.469h6.92v-1.533h-3.247l2.449-3.061h13.994l1.224 1.531h17.915l1.225 1.53H32.44v1.533h20.701L54.359 15H38.564v1.531h17.021l1.223 1.531H5.007l3.673-4.593zm57.961 6.124l-8.752 7.654H4.506l-.875-3.063h5.84v-1.529H3.193l-.875-3.062h64.323z"/><path d="M44.688 22.654h12.248v1.529H44.688zm-3.067 0h1.535v1.529h-1.535zm-30.614 0h1.531v1.529h-1.531zm16.838-10.718h1.533v1.533h-1.533zm-4.592 0h1.531v1.533h-1.531zm-4.595 0h1.533v1.533h-1.533zM33.973 15H35.5v1.531h-1.527zm-4.596 0h1.529v1.531h-1.529zm-4.592 0h1.531v1.531h-1.531zm-4.594 0h1.531v1.531h-1.531zM15.6 15h1.529v1.531H15.6zm-4.593 0h1.531v1.531h-1.531z"/></g></svg>