<svg xmlns="http://www.w3.org/2000/svg" width="324" height="69.048" viewBox="0 0 324 69.048"><path fill="#919396" d="M15.886 69.048C2.482 69.048-2.263 60.152.984 45.01 4.1 30.484 13.478 20.976 26.687 20.976c10.859 0 16.738 5.898 14.995 15.846h-8.708c.893-5.986-1.329-9.771-7.981-9.771-7.338 0-12.57 6.603-14.988 17.874-2.453 11.883.022 18.135 6.968 18.135 6.262 0 10.751-4.047 12.676-10.742h8.708c-3.362 10.656-10.828 16.73-22.471 16.73zm46.764 0c-14.382 0-19.269-8.603-16.173-21.547 3.061-12.784 12.103-21.546 26.485-21.546 14.383 0 19.272 8.604 16.172 21.546-3.094 12.945-12.1 21.547-26.484 21.547zm-7.171-21.547c-2.248 9.391-.253 16.18 8.457 16.18 8.51 0 13.858-6.391 16.199-16.18 2.342-9.785.057-16.18-8.456-16.18-8.708.001-13.953 6.792-16.2 16.18zm55.19 21.008c-14.325-1.266-18.436-10.266-14.212-22.886 4.174-12.466 13.953-20.395 28.28-19.13 14.328 1.267 18.438 10.266 14.212 22.886-4.224 12.621-13.952 20.399-28.28 19.13zm-5.248-22.093c-3.065 9.157-1.674 16.096 7 16.861 8.479.75 14.367-5.148 17.561-14.689 3.196-9.544 1.48-16.112-6.998-16.861-8.672-.768-14.497 5.532-17.563 14.689zm38.891 21.4l13.562-63.22h8.608l-13.56 63.22z"/><path fill="#A6A7AA" d="M192.031 24.145c-8.902 0-15.99 7.042-18.955 20.865-3.116 14.529 1.257 21.045 9.674 21.045 7.435 0 13.155-4.315 15.816-11.713h4.207c-3.508 9.511-10.59 14.706-20.375 14.706-12.425 0-17.13-8.628-13.823-24.038 3.077-14.35 12.066-23.858 24.589-23.858 9.393 0 14.713 4.842 13.9 13.646h-4.303c.649-7.131-2.999-10.653-10.73-10.653zm46.787 38.212l.227-1.058h-.098c-4.713 5.546-11.347 7.749-17.22 7.749-8.61 0-12.835-4.932-11.098-13.032 2.776-12.942 20.078-15.141 32.656-15.848l1.282-5.986c1.587-7.396-2.544-10.037-9.098-10.037-6.754 0-11.76 2.817-13.958 9.42h-4.107c2.889-8.45 9.412-12.414 18.805-12.414 10.469 0 14.085 4.579 12.254 13.118l-5.779 26.943c-.531 2.464-.77 4.488 2.265 4.488h.684l-.566 2.64h-.977c-5.968.001-5.708-3.959-5.272-5.983zm-23.827-6.605c-1.417 6.604 2.293 10.303 8.456 10.303 10.664 0 15.908-7.573 16.816-11.799l2.397-11.183c-8.86.707-25.251 1.408-27.669 12.679zm51.497-15.669l-5.949 27.733h-4.108l7.574-35.305.394-1.851c.512-2.378 1.09-5.99 1.506-7.925h4.207l-1.452 7.22h.1c3.5-5.371 10.402-8.803 15.684-8.803h1.565c.49 0 1.078 0 1.546.086l-.755 3.522c-.766-.089-1.529-.175-2.312-.175-8.61-.001-15.958 5.987-18 15.498zm19.629 15.669h4.014c-.554 6.692 2.252 10.477 10.764 10.477 6.848 0 14.103-3.255 15.539-9.947 1.057-4.931-2.364-7.219-5.978-8.628a103.71 103.71 0 0 0-4.354-1.586l-7.478-2.554c-5.373-1.849-7.591-5.193-6.571-9.949 1.925-8.981 10.1-12.414 18.902-12.414 9.493 0 13.829 3.963 12.929 11.796h-4.01c.654-6.251-3.339-9.067-9.895-9.067-6.75 0-12.462 2.905-13.745 8.891-1.039 4.842 2.478 6.693 8.579 8.803l9.477 3.259c5.473 1.851 7.382 5.723 6.381 10.389-1.812 8.454-9.228 13.825-20.282 13.825-10.664.001-15.454-4.138-14.272-13.295z"/><path fill="#6E6F72" d="M50.375 30.957c3.649-.238 5.217-11.998 22.953-11.476 17.738.521 22.432 10.955 22.432 12.868 0 1.913 4.521-12.556 23.128-12.886 18.606-.33 21.735 12.712 21.91 13.059.173.348-1.384-31.458-53.036-32.515-10.608-.219-23.824 4.326-29.04 4.346-.523 0-2.608 1.5-7.042.062-2.694-.873 3.129 3.977 3.259 7.37.132 3.392-6.441 10.112-5.998 16.822.116 1.764 1.083 2.372 1.434 2.35z"/></svg>