<svg xmlns="http://www.w3.org/2000/svg" width="211.417" height="58.625" viewBox="0 -42.375 211.417 58.625"><g fill="#E04037"><path d="M210.822 2.297c.311.033.211-.182.26-.217-.524.022-.25.272-.26.217zm-5.183.236l.095-.081-.772.173zm-4.82-.228c.437.377 1.749.023 2.603.19l.137.087.402-.269c-1.047-.002-2.413.125-3.142-.008zm-2.532-.89c.152.146-.562.094.598.071-.057-.018-.073-.028-.105-.041a7.27 7.27 0 0 1-.493-.03z"/><path d="M198.778 1.446c.509.014-.327-.132 0 0zm-2.349-.029l.675-.093c-.138-.088-.731-.134-.507-.184-.691.036-.553.124-.168.277zm-.646.23l.348-.036c-.06-.037-.151-.053-.348.036zm1.088-.112l-.74.077c.095.062.1.178.34-.024-.066.101.084.007.4-.053zm.414.073c.37.095.854.166.178.258 1.279.011 1.104-.248-.178-.258zm3.27 1.055l.495.127.439-.1c-.218.05-.96-.141-.934-.027zm-8.286-1.624c-.045.074.217.213.262.312l.498-.064c-.253-.064-.731-.134-.76-.248zm.261.312l-.743.096c.658.046.782-.01.743-.096zm3.114.687l1.227-.218-1.461.211zm-6.2-1.14l.427-.156-.758.231zM187.57.842c.316-.131-.416-.266-.084-.34-.511.002-.949.107-1.345.201.418-.043.86-.006 1.429.139z"/><path d="M185.479.836c.208-.025.426-.078.663-.133a3.302 3.302 0 0 0-.663.133zm5.048.515c-.055-.048-.16-.173-.572-.244l.282.227.29.017zm-.279-.01l-.011-.007a215.31 215.31 0 0 0-.628-.041l.639.048zm.353.014a1.888 1.888 0 0 1-.073-.004c.027.022.043.03.073.004zm3.115.4c-.439.099-1.352.185-.482.408.316-.132-.179-.259.482-.408zm-2.765-.116l.782.085c-.012-.057-.151-.146.067-.195l-.849.11zm-.387.05l.387-.05-.289-.032zm-3.749-.59c-.343.077-.714.068-1.134.063.447.063.91.107 1.354.127.063-.064.261-.176-.22-.19zm1.667.136l-.074.009c.045.02.081.028.074-.009zm-6.926-.266l.065.042.016-.036zm5.552.364c.335.057.539.014.733-.043-.252.01-.521.011-.809 0-.027.028-.032.048.076.043zm-2.786-.45c.176.053.372.1.581.145-.169-.076-.515-.198-.581-.145zm3.972.297l.053-.007c-.11-.051-.097-.028-.053.007zm0 0c-.174.023-.312.069-.451.11a5.64 5.64 0 0 0 .564-.045.633.633 0 0 1-.113-.065zm-8.033 1.102c.066-.195.96-.336 1.718-.089.758-.113.288-.787-.356-1.182-.027.085-.029.165-.81.246.269.12 1.712.333 1.052.481-1.029.055-.839-.109-1.335-.237.416.266-1.317.298-1.106.671l.904-.086c.015.058-.315.133-.067.196z"/><path d="M183.1 1.1l.317-.01c-.36-.052-.619-.143-1.094-.32-.535.072-.648.141-.688.205l1.57.101-.105.024zm1.752.056c-.257.204-1.026.26-.565.515.938.029.662-.149 1.228-.217-1.515-.017.438-.1-.649-.272a8.95 8.95 0 0 1 .818-.019 12.043 12.043 0 0 1-.778-.135l.034.015h.007l-.001.003c.064.03.084.047.012.028-.004.003-.021.003-.031.003-.013.029-.045.054-.075.079-.437-.066-.065-.061.071-.08.006-.01.019-.02.021-.031l-.006-.003-1.521.048c.321.045.722.057 1.435.066zm7.553 1.432c-.046-.021-.043-.036-.046-.052-.098.022-.136.038.046.052zm-.616-.159c.111-.024.207-.106.563-.068.308.08-.006.104.007.175.219-.047.762-.12.09-.256l-.107.024c-.605-.102-1.379-.407-1.271-.432.169.203.321.348.718.557zm-3.513-.583l-1.267.047.636.216-.028-.114c.716.077.567-.068.659-.149zm-6.86-.991l.173-.219-.738.287zm-1.641-.048l.068-.196-.438.1zm-92.352 4.62l-.363.089c.172-.033.283-.062.363-.089zm2.67-.22l.057-.103c-.119.064-.167.108-.057.103zM139.471.51c-.544-.175-1.153-.45-1.084-.229l.17.214c.377-.046.666-.027.914.015zm-27.533 2.155l.161.058.354-.227-.515.169zm-.334.917l-.717-.102c.161.04.392.075.717.102zm-38.732 3.35l-.407.257c.673-.06.365-.145.407-.257zM162.968.598a7.934 7.934 0 0 0-1.162-.149c.559.133 1.01.327 1.162.149zM88.286 3.041c-.223.059-.317.111-.306.159.23-.057.358-.11.306-.159z"/><path d="M160.458.429l.246.055a7.59 7.59 0 0 1 1.102-.035c-.414-.099-.889-.164-1.348-.02zM20.25 13.786l-.123-.007c-.007.032.046.024.123.007zm-15.63.323c.148-.039.394-.078.625-.119-.116.004-.305.035-.625.119zM173.175.581c.348-.009.056-.023 0 0zm1.671.884c-.075.023-.132.053-.142.104a.232.232 0 0 1 .142-.104zm-17.865.26l-.03-.001c.104.044.086.036.03.001zM173.696.688a4.35 4.35 0 0 0-.442-.072c.072.019.206.042.442.072zm-.066-.104l.304.026c.044-.036.004-.059-.304-.026zm-.941.001c.2 0 .387.013.562.031-.066-.016-.096-.028-.076-.035l-.486.004zM48.315 9.068l-.077-.01c-.335.14-.184.104.077.01zm82.151-6.141l.039-.011-.051-.006.012.017zm-1.241.184c.522-.28.827-.252 1.229-.202l-.429-.618-.8.82z"/><path d="M81.04 6.049l.89.118c-1.023.412-1.795.368-.951.569.062-.687 3.38-.366 3.442-1.052l.587.092c-.166.008-.188.05-.352.057 1.146.226.788-.562 2.238-.592.505.008.864.076.528.186l1.106-.266c.326-.015.256.109-.069.125l1.702-.204-.011.022c.235-.128.773-.34 1.038-.433.442.059-.211.09-.094.166l.932-.247c.399.141-.371.38-1.026.412.935.599.772-.239 2.706-.011l-.885.165c.603.334 1.289.133 2.314.285-.248-.104-2.064-.427-1.05-.686.292.026.675.017 1.219-.167.021.24.558.134 1.233.061l-.024.323c.724-.146.657-.294 1.078-.464.817-.012 1.004.226 1.21.424 1.311-.019-.929-.348.614-.491 1.096.064 1.849-.107 3.139-.367.768.069-.121.203.158.279l.658-.29c.166-.003.117.078.092.119.563-.129.027-.321.917-.456.22-.364 1.865.417 2.949-.042.277.076-.121.203-.031.322 1.502-.343 1.291-.26 2.519-.679l1.073.153c-.793-.198.188-.535 1.051-.815-.283-.101-.525-.189-.688-.229l1.388-.246c.171.043.036.16-.185.306l.25-.09c.504.091.254.29-.093.487l-.513-.17c-.334.212-.646.444-.564.627.088-.042.262-.083.452-.11-.087.057-.142.107-.1.137.05.031.19-.047.416-.141l.334.339.069-.146 1.834.125c1.287-.428 2.398-1.016 4.465-1.273-.504.289-.094.433-.108.744-.578-.297-1.599.225-2.673.215.561.004.443.158.304.218l1.9-.4c-.032.255.413.168.919.246-.398-.48 1.412-.409 2.188-.604.053.166-.127.347-1.078.357 1.062.331 1.332-.683 2.373-.372-.231.008-.356-.016-.445.072.537-.16 1.867-.065 1.561.087l-.232.008c1.545.031 4.695-.082 4.914-.511.016.054-.188.516-.278.604l2.715-1.481c-.233.37.718 1.222-.556 1.452a4.69 4.69 0 0 0 1.596-.044c-.252-.048-.639-.517-.297-.557.949.39.658.206 1.824.531-.377-.072.027-.652.621-.645-.092.088.062.564-.154.628l1.466-.589c-.367.108-.056.478.276.63-.154-.107 1.277-.013 1.67-.076l-.629-.119c1.668.055 1.635-.82 3.291-.821-.198.12-.485.724.355.779.383-.295 1.691-1.416 3.157-1.665l.282.16L145.09.92c-.698.446-2.654 1.394-3.721 1.768.625.119.176.191 1.108.159.332.148-.506.243-.78.257l2.174.06c-.099-.334 1.66-.368 1.575-.646l-2.358.392c-.1-.334 1.357-.979 2.901-.948.392.127-.29.604-.258.715.2-.12 1.462-.248 1.604-.168l-.653.191c.858.111 1.399-.471 2.431-.169.355.01 1.062.445 1.125.243-.581-.393-.695-1.581-.309-1.863.125.028 1.871.396 2.277.591.586.31-.883.703-.384.969.022-.091.347-.2.481-.234.373.084-.155.282.656.253.137-.339 1.652.054.385-.282.796-.085.846.083 1.779.083-.297-.225.842-.737 1.64-.822-.048.086.13.202.217.254 1.63.056 2.504.225 4.022.251.14.084.871.196.558.337.22-.057.421-.169.89-.17.903.309-1.045.03-.357.394.062-.197 1.216-.254 1.885-.368-.201-.309-1.542-.083-2.212.031.003-.422 1.173-.846 2.766-1.016 1.265-.085.544.281.765.224 2.371.111 2.035-.705 4-.371.775.281.023.536.192.732-1.028.086-1.573-.195-2.272-.195l.856.141c-.329.084-1.018.141-1.391.058.649.251 4.006.108 5.832.359.325-.085.89-.169.627-.282l-.58.029c-.526-.225 1.099-.283.366-.396.781-.141 1.658-.366 2.75-.227l.197.31c-.021-.09-.709-.194-1.021-.105.46-.128 1.665.441 2.176.047l-.761-.224c.786-.14 1.761-.457 2.729-.335-.433-.319-.227.028-.904-.339.584.45-2.48-.057-1.534.421-.695-.422-1.22-.193-2.136-.558.025.101.324.198-.489.136a.916.916 0 0 1-.183.086l-.056-.008.045.013c-.034.014-.038.018.017.004.193.047.351.103.412.161-.41.226-1.705.198-2.146.312-.481-.056.205-.113-.058-.225l-.658.169c-.061-.225-1.275-.393-.133-.506l-1.025-.026c-.602-.135-1.43-.198-1.943-.112-.482-.056-1.227.23-.803.061l-1.609.114-.013-.056c-1.587-.053-3.271.321-5.077-.112-.535.048-1.088.109-1.979.032l-.173-.197c-.687.057-2.059-.226-2.354-.028-.736-.534-3.328-.166-4.533-.277l-.045.253c-.83-.021-1.627.019-2.656.132l.063.223c-.888.2-2.284-.118-3.688-.069.095-.087.451-.072.703-.024-1.683-.476-3.537.433-5.062.092a2.064 2.064 0 0 1-.92.014.435.435 0 0 0 .094-.013h-.155l-.527-.11c.158.052.312.094.443.112-.293.01-.735.046-1.17.11l-.188-.237-.103.009c-.428-.082-.341.12-.109.297a3.43 3.43 0 0 0-.572.156c-.354-.382-1.139.152-1.619-.254-.289.208-2.184.192-2.406.622-.016-.055-.145-.079.09-.087-.483-.04-.969-.079-1.401.049l-.212-.303-1.049.431c-.647-.175-.916-.278-.284-.525-1.532.39-1.247.159-2.548.542l.059-.199c-.469.016-1.21.294-1.496.136-1.061-.35-5.188.003-7.888-.149.544.554-1.261-.195-1.349.262-.162-.129-.541-.187-.109-.33-1.366.208-2.071-.108-3.002.322-.164-.13.283-.218.142-.292-.108.035-.431.143-.577.068-.144-.075.195-.126.41-.198-1.4.098-1.523.53-1.605.934-.717-.151-1.071-.105-1.569.183-.254-.117-.674-.231.194-.325-.49.007-3.002-.032-3.035.29-.157-.073-.686.013-.812.057-1.1.04-1.197.016-2.273.104l.302.036c-.403.408-.892.134-1.758.226l.023-.041c-2.013-.171-.854.179-2.84-.033l.123.233c-.15.524-1.763-.21-2.892.047l.421.115c-.611.211-1.791-.612-2.422-.633-.139-.033.209-.092.398-.132-1.66-.178-.19.327-1.405.503-.236-.149.26-.455-.565-.415-.419-.101-2.339.757-3.484.531.257.108.511.217-.046.365-.864.123-2.387-.287-3.137.192-.121-.026-.164-.057-.172-.089-.656.164-2.143.365-2.522.622-.686-.771-4.088.762-4.142 0l-2.038.219.046-.083c-1.31.064-1.754.287-2.193.51-.307-.026-.093-.116-.073-.158-1.92.014-2.108.063-3.667.581L73.2 4.66c-.42.158-2.791-.097-4.624.415.015-.03.048-.083.193-.135-2.064.538-5.098-.088-5.764.9l-1.359.385c1.797-.143-.22.42.533.482-.697.136-1.851-.054-.991-.203l.141.029c.262-.505-2.243.098-2.233-.226-3.518.44-6.984.59-10.286.961l.427.318-1.152.121c-.312-.039-.442-.23.379-.323-.459-.154-1.351.367-1.362.447-1.622.084.569-.513.076-.451l-.663.123.156.021c-.521.226-.548.39-1.534.514-.632.017-.349-.177-.596-.156-.001-.026-.086-.026-.377.044l-1.449.178.617.203c-.621.233-1.361.181-.65.409-1.046-.358-5.413.599-6.035.529-.867.338-1.752.462-2.853.595.282.021.491.318-.46.415.249-.712-1.773-.038-2.609-.403.73.217-2.677.465-1.538.76-.796.061-.084-.241-.708-.312-1.839.53-4.167.416-6.467.896-.022.094.387.164-.09.373l-1.291-.234c-.451.116-.342.568-1.224.402.129.056.323.137.02.215-4.603.312-9.208 1.852-13.945 1.806.651.066.239.151-.237.234.317-.011.03.216.109.323L3.371 14.3c-.297.384-2.063.358-2.212.703l.601-.155c-.749.5 1.274.633 1.234 1.125.839-.565 2.498.23 3.89-.611.344.043-.257.199-.062.279.344-.265.792-.381 1.654-.427l-.088.065c2.367-.436 3.418-.4 6.107-.701l-.234-.201c.578-.062.711-.009.988.006.601-.461-1.613.242-1.076-.246.837.354 4.044-.65 4.644-.191.883-.141-.301-.229.582-.369l.256.107.193-.225c.583-.062.903.072.944.191-.143.01-.393.101-.542.136.777.051 2.105-.402 2.371-.388l-.861.047c2.382-.549 5.358-.774 7.645-1.405l-.193-.085c1.75-.462 1.444-.085 3.385-.461l-.068.035c.375-.165.89-.297 1.427-.361-.475.201.964.118.338.355 1.899-.5.931-.312 2.146-.905l.321.141c.41-.229.434-.321 1.403-.51-.778.272.663.188-.204.526 2.104.105 2.986-.844 4.007-.393.87-.644-1.812-.025-1.301-.211-.465-.104.724-.492 1.375-.533.656-.084 1.203.489 2.848.242-.165.021-.171.061-.334.082.634.041 1.183-.35 1.967-.248.382-.367.984-.123 1.053-.533l-1.498.31c.843-.22 1.582-.817 3.026-.767-.099.096-.506.242-.787.344.427.059.786-.174 1.23-.107-.072.396-1.829.312-2.704.755.463.103 1.696-.534 1.292-.042.59-.641 1.635-.131 2.698-.682l-.043.244c.172-.059.525-.213.851-.245l-.551.375c.873-.367 1.774.021 2.624-.224-1.816.223-.443-.235-1.234-.315 2.203-.582 1.367.462 3.862.052-.335.073-1.293.01-.775-.162.483-.009 1.125.008 1.433.096 1.657-.246-.284-.21.406-.439.601.22.803-.214 1.521-.392l.035.239c1.913-.071.442-.559 2.172-.576l-.683.417.88-.191-.152.294c.945-.317 1.252-.301 2.208-.336-.24-.143.075-.45.914-.557.588.075-.296.266.891.09-.251.182-.525.405-1.068.246-.043.084-.248.182-.293.266.635.091 1.553-.146 1.983-.2-.167.011-.366.021-.471-.001l1.688-.537c.281.058.073.156-.132.251.347-.067.576-.206 1.087-.287-.111.21-.058.408-.774.585l1.618-.411c.12.071.868.132.664.229.922.015 2.192-.661 3.418-.618.059-.043.181-.09.436-.141 1.144-.055 2.175.096 3.498-.29l.799.283c1.049-.172-1.079-.35.668-.636 1.235-.221.493.257.94.317.602-.231 1.646-.684 2.817-.499-.376.099-.679.073-1.029.13zm13.019-1.297c-.249.073-.74.272-.935.147.266-.3.499-.188.935-.147zm19.828-1.727c-.185.09-.478.066-.812-.008a2.81 2.81 0 0 1 .812.008zM169.355.718l-.025.011c-.567-.102-.366-.062.025-.011zm1.176.123c.119-.032.111-.065.062-.1-.084.06-.348.06-.649.038.082.065.235.111.587.062zM44.423 7.989l.235.03c-.502.142-.366.06-.235-.03z"/><path d="M111.649 3.475a.215.215 0 0 1-.114-.125c-.097.046-.097.092.114.125zM72.948 6.884h-.04a.097.097 0 0 0-.036.047l.076-.047zm79.343-4.28a1.532 1.532 0 0 1-.467-.132c-.012.06.097.111.467.132zm24.49-2.076l-.755.051c.364-.006.493.048.677.089-.015-.056-.157-.14.078-.14zm6.491 1.731c.11-.024.231.008.343-.017l-.025-.113c-.469-.015-.799.06-.318.13zm-5.815-.919c.053.204.527.142 1.058.113l-.095-.001c.165-.282-.4-.197-.963-.112zm1.18.108c.163-.009.329-.005.487.012.065-.109-.196-.039-.487-.012zm-6.61-.718c.249.056.164-.257.305-.172.285-.254-1.679.286-.305.172zm5.837 1.285l-.181-.253-.303.196zm-4.161-.248l.842.083c-.012-.042.096-.065.229-.082-.521-.018-1.089-.076-1.071-.001zm1.069 0c.271.009.528.007.681-.031-.147 0-.464.004-.681.031zm1.936.305l-.248-.056-.593-.028zm-12.069-.494l-.923.058c-.096.084.154.141.498.111.222-.056.564-.084.425-.169zm2.769.729c-.246-.056-.263-.112-.402-.196l-.032.31.434-.114zm-2.682.031c-.094.085-1.339.227-.173.225.094-.084 1.016-.141.173-.225zm-13.857-.607l.235-.001-.034-.509zm-12.2 1.39c1.092.102.254-.319 1.24-.185.254-.125-.806-.11-.546-.218-.653.139-1 .074-.694.403zm.695-.403c.104-.022.218-.049.335-.084-.19.036-.28.062-.335.084zM2.038 14.251l-.71.008.475.096zm-1.267.589l-.217-.294-.367.356c.154-.038.452-.115.584-.062zm95.273-9.605l.047-.083c-.113-.075-.278-.066-.605-.051l.558.134zm-9.473.586l.163-.008-.329-.266zm-7.899 1.067c.325-.016.698-.114 1.026-.131-.701.115-1.149-.226-1.026.131z"/></g></svg>